<svg width="260" height="80" xmlns="http://www.w3.org/2000/svg">
    <g fill="none" fill-rule="evenodd">
        <path d="M188.382 45.796c-2.79.144-5.532-.168-8.105-1.295-5.192-2.276-7.338-6.535-7.564-11.907-.264-6.234 1.837-11.83 8.112-14.461 5.306-2.226 10.824-2.239 16.175-.16 4.99 1.94 7.3 5.985 7.714 11.143.221 2.762-.039 5.51-1.1 8.11-2.257 5.518-6.733 7.917-12.402 8.555-.932.105-1.887.015-2.83.015m8.792-14.518c.129-2.79-.253-5.491-1.618-7.978-1.407-2.566-3.542-4.023-6.542-4.122-3.138-.105-5.398 1.319-6.977 3.931-1.13 1.866-1.546 3.943-1.744 6.072-.316 3.358-.08 6.664 1.465 9.726 1.36 2.693 3.534 4.294 6.684 4.385 3.275.094 5.595-1.39 7.132-4.186 1.342-2.441 1.731-5.085 1.6-7.828M255.121 35.53c.02-5.909.094-11.488-.299-17.055-.081-1.14.242-1.391 1.342-1.228.96.144 1.96.017 2.94.01-.053.972-.09 1.947-.162 2.918-.506 6.824-.236 13.66-.31 20.49-.016 1.563.483 3.092.242 4.78-1.455-.201-2.888-.424-4.32-.026-.744.208-.957-.479-1.295-.9-4.913-6.111-10.085-11.998-15.48-17.71-.496.302-.253.763-.253 1.126.004 5.477.01 10.956.078 16.432.011.926-.132 1.196-1.102.912-.964-.282-1.967-.01-3.123.222.46-3.916.357-7.766.463-11.61.142-5.164-.076-10.326-.294-15.484-.047-1.11.173-1.434 1.237-1.156.247.065.54.09.781.025 2.964-.792 4.468 1.012 6.056 3.067 3.934 5.087 8.241 9.863 12.72 14.484.171.178.366.333.78.704M215.41 17.236c2.491-.257 5.1-.34 7.723.046 5.072.75 7.03 3.943 6.345 8.76-.698 4.908-3.978 7.248-9.745 7.539-1.082.054-2.555-.496-3.138.259-.54.698-.153 2.091-.203 3.177-.11 2.456.14 4.895.338 7.335.07.843-.064 1.251-1.064 1.057-1.818-.355-3.659-.318-5.481.004-.896.158-1.176-.067-1.1-1.02.454-5.777.42-11.568.345-17.356-.037-2.918-.194-5.835-.36-8.749-.047-.824-.035-1.182 1.019-1.091 1.72.148 3.46.04 5.32.04m.986 8.068c0 1.507.013 3.013-.007 4.52-.008.58.01.937.812.909 3.147-.11 4.996-1.5 5.406-4.494.535-3.92-1.1-6.546-5.03-6.443-.984.025-1.244.384-1.199 1.3.069 1.401.018 2.806.018 4.208M102.744 45.509c-2.584-.175-4.942-.279-7.295-.045-.606.059-.904-.114-1.088-.781-.562-2.036-1.267-4.033-1.869-6.06-.253-.85-.657-1.284-1.635-1.255-2.254.067-4.513.068-6.767.014-.92-.022-1.265.39-1.514 1.184-.635 2.017-1.35 4.01-2.02 6.016-.173.515-.314 1.003-1.04.86-1.135-.221-2.28-.094-3.635.08 1.497-3.459 2.983-6.69 4.303-9.986a985.094 985.094 0 0 0 6.836-17.599c.365-.965.726-1.368 1.85-1.31 2.981.158 2.989.086 3.962 2.904 2.934 8.486 6.21 16.843 9.593 25.161.074.183.143.368.319.817M87.579 25.166c-1.103 2.933-2.06 5.55-3.077 8.142-.283.721-.125.919.62.906 1.68-.03 3.361-.03 5.041-.004.752.012.857-.186.612-.91-.891-2.643-1.865-5.25-3.196-8.134M141.846 23.985c-.306-.332-.478-.452-.56-.617-1.678-3.373-4.636-4.293-8.099-4.03-4.143.313-6.713 2.732-7.788 6.564-1.059 3.772-.89 7.607.499 11.312 2.263 6.034 10.536 7.942 15.35 3.57.27-.247.514-.52.776-.775.188-.183.39-.35.679-.198.334.175.214.413.09.652-.023.046-.055.096-.056.144-.019 3.332-2.045 4.493-5.05 4.963-3.565.56-7.055.657-10.546-.351-5.718-1.653-9.417-6.268-9.712-12.17-.166-3.304.059-6.545 1.78-9.497 2.447-4.199 6.352-6.234 10.992-6.82 4.07-.511 8.117-.164 11.98 1.48.964.41 1.214.779.812 1.787-.484 1.214-.737 2.52-1.147 3.986M169.207 23.903c-.101-.186-.226-.362-.301-.558-1.871-4.88-9.793-5.245-13.31-1.78-1.811 1.784-2.602 4.027-2.962 6.52a19.044 19.044 0 0 0 .813 8.91c2.107 6.253 10.698 8.22 15.645 3.687.373-.343.659-1.236 1.3-.779.426.304-.156 1.008-.148 1.536.037 2.635-1.71 3.425-3.895 3.9-4.977 1.084-9.856 1.102-14.482-1.317-3.557-1.86-5.613-4.893-6.378-8.763-.696-3.518-.713-7.054.754-10.398 2.217-5.046 6.462-7.468 11.72-8.137 4.128-.526 8.227-.117 12.121 1.57.759.33.958.627.652 1.454-.477 1.29-.76 2.652-1.125 3.982l-.404.173M113.096 17.087c-.47 3.418-.367 6.792-.436 10.163-.117 5.677-.155 11.352.337 17.015.078.895-.02 1.377-1.124 1.17-1.865-.351-3.756-.377-5.629-.015-.97.188-1.094-.17-1.022-1.068.56-6.912.726-13.835.304-20.761-.114-1.87.048-3.755-.312-5.61-.121-.629-.031-.911.796-.817 2.28.26 4.577.228 7.086-.077" fill="#D7D7D7"/>
        <path d="M29.949.35c1.439.508 2.966.708 4.387 1.292 5.185 2.132 9.067 5.786 12.16 10.327 4.001 5.876 6.222 12.424 7.3 19.4.727 4.704.875 9.429.366 14.142-1.036 9.57-3.97 18.43-10.487 25.806-3.522 3.986-7.798 6.844-13.136 7.797-5.672 1.012-10.793-.473-15.37-3.825C9.15 70.881 5.514 64.787 3.033 57.93.455 50.803-.368 43.414.144 35.907c.579-8.474 2.83-16.482 7.61-23.64 3.111-4.657 7.029-8.42 12.32-10.604 1.454-.6 3.01-.813 4.488-1.313.89 0 1.78-.35 2.67-.35.905 0 1.811.35 2.717.35m13.054 38.466.414-.002 1.264-.023.487.01 1.155.015.209-.001.404-.001 1.243-.004.416.004h.214l1.04-.01.41.012.1.012.099-.014h1.024l.222.002.204-.005.1.022.102-.017c.313.045.427-.103.429-.4.01-1.764-.032-3.524-.389-5.263-.043-.29-.087-.579-.132-.868-.116-.56.031-1.164-.299-1.685-.022-.35.07-.722-.19-1.03-.112-1.573-.479-3.089-1.05-4.558-.018-.198-.002-.406-.176-.555a2.624 2.624 0 0 0-.427-1.354c-.108-.994-.62-1.854-.922-2.783l-.32-.585c-.085-.332-.165-.666-.43-.915-.229-.95-.717-1.779-1.23-2.594-.088-.268-.17-.54-.421-.71l-.191-.323c-.248-.717-.611-1.363-1.185-1.878-.073-.292-.216-.538-.476-.705-.202-.616-.635-1.071-1.07-1.525l-.18-.212-.419-.477c-.246-.619-.756-1.011-1.24-1.426-.102-.19-.213-.372-.454-.414-.323-.505-.724-.933-1.25-1.235-.125-.134-.177-.346-.406-.365a.39.39 0 0 0-.166-.093c-.325-.434-.696-.811-1.241-.967-.077-.194-.237-.29-.425-.353-.337-.395-.78-.632-1.253-.823l-.436-.223c-.35-.333-.745-.584-1.236-.651l-.424-.197a.65.65 0 0 0-.17-.068c-.28-.324-.69-.376-1.065-.5a.321.321 0 0 0-.188-.031l-.41-.113c-.322-.213-.662-.366-1.063-.324a.424.424 0 0 0-.185-.042c-.117-.13-.265-.161-.431-.126-.386-.231-.805-.276-1.243-.217l-.427-.036a.431.431 0 0 0-.159-.027c-.917-.482-1.035.002-1.034.785.01 11.657.015 23.315-.009 34.973-.001.799.25 1.067 1.01.893l.207-.001.405-.001 1.244-.004.415.004h.214l1.04-.01.411.012.099.012.098-.014h1.025l.215.003.407-.006 1.237-.011.434.017.098.016.1-.015 1.052-.01.419.008.208-.004 1.026.002.097.016.097-.013.38-.01c.514.016 1.052.21 1.509-.199.438.355.945.236 1.44.208M17.697 74.862c.094.159.24.227.418.242.338.38.8.548 1.254.734l.328.164.28.078c.335.292.721.438 1.168.42.104.207.284.223.484.188.288.304.68.339 1.06.406l.208.014.399.103 1.263.28.449.007c1.21.376 1.213.376 1.213-.83 0-11.57-.01-23.139.022-34.71.003-1-.286-1.314-1.231-1.03l-.45-.033-1.248-.004-.414.01a.444.444 0 0 0-.19-.01c-.36-.056-.72-.085-1.074.036l-.49-.001c-.385-.12-.774-.105-1.165-.03a.39.39 0 0 0-.18.009l-.415-.014-1.246.006-.419.001a.401.401 0 0 0-.193-.01c-.353.006-.706.012-1.059.02-.156.008-.312.016-.467.026l-3.03-.026-.432.005a3.068 3.068 0 0 0-1.248-.013h-.423a.46.46 0 0 0-.184-.004c-.351 0-.702 0-1.052.002a.33.33 0 0 0-.17.002l-.392.007a2.5 2.5 0 0 0-1.255.023l-.45-.036c-.417 0-.833-.002-1.25-.004l-.414.011a.44.44 0 0 0-.189-.01c-.36-.056-.719-.084-1.074.033l-.488.002c-.385-.12-.775-.105-1.166-.031a.416.416 0 0 0-.182.009l-.41-.015c-.25-.002-.395.137-.366.37.16 1.292.022 2.607.325 3.886l.315 3.023.298 1.326c.158 1.822.616 3.578 1.207 5.303.055.456.202.88.45 1.266.087 1.059.622 1.98.932 2.967l.314.573c.076.34.166.675.427.933.223.961.704 1.803 1.235 2.622.096.286.153.596.452.765a5.533 5.533 0 0 0 1.243 2.128c.146.196.127.501.405.61l.177.218a2.591 2.591 0 0 0 1.034 1.405c.029.413.325.625.628.832.198.556.63.92 1.067 1.278l.17.173c.102.19.213.368.444.422.33.492.729.914 1.234 1.23l.42.365.173.171c.267.405.673.638 1.08.87.049.03.101.052.157.065.086.186.241.284.434.333.194.36.563.485.892.663.119.06.238.118.357.176M26.22 20.53V8.182c0-1.817-.02-3.635.01-5.453.011-.598-.139-.751-.76-.645-1.086.186-2.174.336-3.23.664-5.313 1.648-9.228 5.12-12.327 9.547C4.492 20.04 2.267 28.79 1.932 38.11c-.032.868.448.736.96.736 7.456-.001 14.912-.018 22.368.023.887.004.977-.318.974-1.055-.026-5.762-.014-11.523-.014-17.285m2.043 38.638v15.846c0 2.919-.002 2.912 2.873 2.215 5.238-1.27 9.223-4.381 12.426-8.528 6.15-7.962 8.514-17.193 8.986-27.036.037-.775-.328-.795-.915-.794-7.457.012-14.914.021-22.37-.012-.826-.004-1.023.226-1.018 1.024.033 5.761.018 11.523.018 17.285" fill="#C3A133"/>
        <path d="M26.22 20.529c0 5.762-.012 11.523.014 17.285.003.737-.087 1.06-.974 1.055-7.456-.041-14.912-.024-22.368-.023-.512 0-.992.132-.96-.736.335-9.32 2.56-18.07 7.981-25.815 3.099-4.427 7.014-7.899 12.327-9.547 1.056-.328 2.144-.478 3.23-.664.621-.106.771.047.76.646-.03 1.817-.01 3.635-.01 5.452V20.53M13.244 32.622h-.08c0 .685-.013 1.369.003 2.052.034 1.434 1.115 2.526 2.532 2.575 1.48.052 2.583-.878 2.708-2.357.069-.815.032-1.64.033-2.46.003-2.561 0-2.576-2.538-2.553-.885.007-2.1-.391-2.565.173-.435.529-.093 1.688-.093 2.57m5.17-17.97h.027c0-.685-.036-1.374.01-2.057.042-.609-.213-.745-.776-.728a66.166 66.166 0 0 1-3.832-.002c-.546-.015-.704.153-.69.69.036 1.37-.004 2.745.016 4.116.02 1.436 1.1 2.545 2.51 2.618 1.416.073 2.601-.93 2.724-2.374.064-.749.012-1.508.012-2.262m6.56 9.07c0-.753-.016-1.506.007-2.257.011-.387-.104-.545-.519-.538a218.72 218.72 0 0 1-4.234.003c-.355-.002-.591.051-.585.492.024 1.504-.056 3.014.052 4.511.106 1.472 1.416 2.51 2.817 2.41 1.392-.099 2.414-1.2 2.46-2.672.02-.65.003-1.3.002-1.95m-11.756-.01-.055.001c0 .651-.008 1.303.002 1.954.025 1.495 1.106 2.62 2.561 2.678 1.433.057 2.602-1.016 2.696-2.53.05-.82.037-1.646.012-2.468-.024-.782.348-1.845-.164-2.266-.48-.394-1.513-.161-2.3-.137-.917.028-2.143-.406-2.661.189-.442.506-.091 1.693-.091 2.58m-1.294.009c0-.753-.017-1.508.006-2.26.012-.395-.114-.54-.524-.535-1.38.02-2.76.03-4.139-.004-.54-.014-.616.22-.609.67.022 1.405-.026 2.812.024 4.215a2.62 2.62 0 0 0 2.69 2.538c1.442-.033 2.527-1.165 2.55-2.67.01-.652.002-1.302.002-1.954M28.263 59.167c0-5.762.016-11.524-.018-17.285-.005-.798.192-1.028 1.018-1.024 7.456.033 14.913.024 22.37.012.587-.001.952.02.915.794-.472 9.843-2.837 19.075-8.985 27.036-3.204 4.147-7.19 7.259-12.427 8.528-2.875.697-2.873.704-2.873-2.215V59.167m12.658 4.681c0-.685-.024-1.37.008-2.053.023-.499-.083-.747-.668-.73-1.342.04-2.687.028-4.03.004-.478-.008-.679.123-.669.632.028 1.369-.026 2.74.02 4.108.052 1.568 1.196 2.676 2.68 2.68 1.49.004 2.59-1.099 2.654-2.689.026-.65.005-1.301.005-1.952m0-18.089c0-.65-.02-1.302.006-1.952.017-.443-.052-.698-.6-.685-1.378.032-2.758.02-4.138.006-.41-.004-.634.082-.626.562.025 1.405-.038 2.812.023 4.214.066 1.51 1.35 2.681 2.761 2.625 1.406-.057 2.508-1.206 2.569-2.714.027-.684.004-1.37.005-2.056m-5.388 9.097h.039c0 .651-.021 1.303.004 1.953.062 1.587 1.261 2.788 2.732 2.761 1.44-.025 2.56-1.204 2.61-2.767.02-.685.012-1.37 0-2.056-.014-.814.263-1.896-.154-2.375-.495-.568-1.618-.174-2.464-.175-.881-.002-2.047-.4-2.564.185-.44.5-.163 1.625-.203 2.474m-6.421-.123c0 .91-.023 1.63.004 2.35.052 1.374 1.253 2.489 2.648 2.485a2.555 2.555 0 0 0 2.571-2.436c.043-.82.017-1.645.018-2.467.001-2.484 0-2.498-2.498-2.477-.885.008-2.04-.381-2.584.16-.546.545-.087 1.694-.16 2.385m18.266.33c0-.754-.028-1.51.01-2.261.026-.506-.166-.64-.65-.63-1.311.027-2.623.038-3.932-.004-.577-.018-.685.206-.674.716.03 1.37-.011 2.742.017 4.112a2.606 2.606 0 0 0 2.66 2.573c1.412-.017 2.518-1.109 2.564-2.553.02-.65.003-1.302.005-1.953" fill="#FFFFFE"/>
        <path d="M25.013 40.929c.945-.285 1.234.03 1.23 1.03-.032 11.57-.02 23.14-.02 34.71 0 1.205-.004 1.205-1.215.829-.01-4.967-.02-9.936-.032-14.904.252-2.374.319-4.747.002-7.12l.035-14.545M29.128 38.816c-.761.174-1.012-.094-1.01-.893.023-11.658.02-23.316.007-34.973 0-.783.117-1.267 1.035-.785-.01.445-.03.89-.03 1.334-.002 11.772-.002 23.545-.002 35.317" fill="#D2322E"/>
        <path d="M14.185 72.22c-.505-.317-.904-.74-1.234-1.231l.021-14.218c.854-.734.854-1.131-.003-1.92l.013-7.936c.47.024.853-.181 1.21-.455l-.007 25.76M37.828 38.808l-1.052.01c-.004-8.492-.008-16.983-.01-25.475.34-.235.453-.888 1.086-.583l-.021 8.544c-.552.444.064.868.024 1.302l-.027 16.202M6.117 40.89l1.25.004.026 10.731c-.175.284-.379.554-.519.853-.236.507.03.594.47.494l-.013 10.186c-.531-.819-1.012-1.661-1.235-2.622l.021-19.646M30.983 38.81l-1.244.004-.018-18.907c.451-.228.871-.499 1.225-.862l.064 2.445c-.928 1.174-.929 1.346-.01 2.153l-.017 15.167M29.746 2.228c.438-.06.857-.015 1.243.217l.023 14.784c-.318.622-.75 1.16-1.238 1.655l-.028-16.656M48.18 38.81l-1.244.004c-.01-2.19-.02-4.38-.032-6.57 1.102-4.056 1.432-8.113.001-12.169l.068-3.85c.514.817 1.002 1.645 1.232 2.595l-.025 19.99M36.145 38.8l-1.238.01-.025-14.855c.314-.404.744-.541 1.24-.53l.023 15.375M48.953 20.32c.303.928.815 1.79.923 2.782l-.028 15.702-1.04.01c-.001-5.87-.004-11.74-.002-17.61 0-.3-.076-.62.147-.885M15.859 73.625c-.408-.232-.814-.465-1.08-.87.011-.476.03-.954.032-1.431.012-5.46.021-10.92.032-16.381l1.08 2.166c-.02.41-.054.818-.055 1.227-.006 5.096-.007 10.193-.01 15.289M5.356 59.031c-.311-.989-.846-1.909-.933-2.967l.017-15.14c.355-.117.714-.09 1.074-.033-.004 5.647-.006 11.294-.019 16.94 0 .401.114.825-.139 1.2M17.341 74.687c-.33-.179-.698-.304-.892-.662.009-.547.022-1.093.023-1.64.012-4.78.021-9.56.031-14.342.225.392.484.715 1.011.487l.041 11.431.005.763c-.195 1.314.201 2.66-.219 3.963" fill="#D9292B"/>
        <path d="M41.563 38.608c-.456.409-.994.215-1.507.198l-.015-13.363c.374-.287.78-.501 1.258-.557l-.008 11.47c-.427.164-1.01.18-.997.823.012.664.543.777 1.066.861.067.01.133.027.2.041l.003.527" fill="#D2322E"/>
        <path d="m23.315 40.89 1.249.005-.036 13c-.126-.832-1.007-.496-1.41-.9l.001-.51c.71-.477.353-1.062.17-1.63l.026-9.964M32.651 38.804l-1.039.01V23.85c.787.139 1.031.652 1.031 1.39 0 2.775.02 5.55.033 8.325l-.025 5.239M39.48 38.814l-1.025-.002.007-15.185c.5.536.82 1.173 1.054 1.858l-.035 13.33" fill="#D9292B"/>
        <path d="M3.973 54.797c-.59-1.725-1.05-3.48-1.207-5.303l.02-8.6c.39-.073.78-.087 1.167.032l.02 13.871" fill="#D2322E"/>
        <path d="m29.746 2.228.028 16.656c-.143.335-.526.657-.053 1.023l.018 18.907h-.405L29.32 2.193l.427.036" fill="#D7D7D7"/>
        <path d="M24.56 77.49c-.42-.092-.842-.186-1.263-.28l-.01-9.84c.335-.919.739-1.805 1.24-2.646.012 4.256.023 8.511.033 12.767M31.605 2.613c.4-.042.742.11 1.064.325l.005 12.066c-.222.572-.614 1.022-1.053 1.436l-.016-13.827M50.48 25.011c.57 1.47.937 2.986 1.05 4.56-.017 3.081-.032 6.163-.048 9.244h-1.024l.021-13.804" fill="#D9292B"/>
        <path d="M7.817 40.93a2.498 2.498 0 0 1 1.255-.023l.014 8.485c-.306.621-.677 1.192-1.252 1.607L7.817 40.93" fill="#D2322E"/>
        <path d="m14.185 72.22.007-25.76.409-.362.005 26.486c-.14-.12-.28-.243-.42-.364" fill="#1A1A18"/>
        <path d="M33.266 3.082c.375.123.785.175 1.065.5l-.003 9.309c-.241.552-.645.984-1.047 1.418l-.015-11.227" fill="#D9292B"/>
        <path d="M9.026 66.051a5.536 5.536 0 0 1-1.243-2.128l.05-7.357 1.25.545-.057 8.94" fill="#D2322E"/>
        <path d="m36.145 38.8-.024-15.374c.198-.532.182-1.065 0-1.597l.025-8.055.408-.21.024 25.253-.433-.017" fill="#D7D7D7"/>
        <path d="M12.337 70.395c-.438-.359-.869-.723-1.067-1.279l.016-2.372c.589-.148.424-.627.425-1.007.01-2.503.014-5.006-.002-7.51-.002-.545.021-1.034.637-1.249l-.01 13.417M21.637 40.927c.355-.12.714-.092 1.074-.036l-.031 9.343c-.415-.321-.816-.655-1.057-1.136l.014-8.171" fill="#D9292B"/>
        <path d="M19.983 40.895c.39-.074.78-.088 1.165.03v7.727c-.483-.356-.944-.732-1.209-1.291l.044-6.466" fill="#D2322E"/>
        <path d="M34.924 3.846c.492.067.887.317 1.237.651l.013 4.447c-.134.42-.455.886-.366 1.254.222.922-.374 1.367-.865 1.907l-.019-8.26M22.69 77.094c-.38-.067-.772-.102-1.06-.406l-.007-6.97c.211-.575.697-.94 1.067-1.396v8.772" fill="#D9292B"/>
        <path d="m48.18 38.81.025-19.99c.264.249.344.583.43.915l-.04 19.08-.415-.005M6.117 40.89l-.021 19.646c-.26-.258-.351-.593-.427-.933L5.703 40.9l.414-.011" fill="#D7D7D7"/>
        <path d="m29.319 2.192.015 36.623-.206.001c0-11.772 0-23.545.002-35.317 0-.445.02-.89.03-1.334.055 0 .108.008.159.027" fill="#9F584F"/>
        <path d="M21.146 76.5a1.617 1.617 0 0 1-1.168-.42c0-1.772 0-3.544-.002-5.317.345-.283.712-.526 1.158-.625l.012 6.362" fill="#D2322E"/>
        <path d="m9.634 40.897 1.051-.001.025 6.395c-.21.57-.648.97-1.044 1.403l-.032-7.797" fill="#D9292B"/>
        <path d="m16.503 58.043-.03 14.343c-.002.546-.016 1.092-.024 1.638-.193-.05-.348-.148-.434-.334.014-.445.038-.89.039-1.335.011-5.003.019-10.006.027-15.008.286.145.293.458.422.696" fill="#2D2824"/>
        <path d="M18.141 40.897c.415-.002.83-.005 1.246-.006l-.03 5.949a4.253 4.253 0 0 1-1.243-1.356l.027-4.587" fill="#D9292B"/>
        <path d="m37.828 38.808.027-16.202c.245.198.368.464.43.764l-.038 15.445a68.52 68.52 0 0 1-.42-.007" fill="#1A1A18"/>
        <path d="m49.848 38.804.028-15.702c.274.411.403.867.427 1.355l-.044 14.359-.41-.012" fill="#2D2824"/>
        <path d="M30.983 38.81 31 23.643l.413.19-.015 14.981-.415-.004" fill="#D7D7D7"/>
        <path d="m3.973 54.797-.02-13.87.487-.003-.017 15.14a2.985 2.985 0 0 1-.45-1.267" fill="#2D2824"/>
        <path d="M11.293 40.9a3.08 3.08 0 0 1 1.248.013l.022 3.912a4.906 4.906 0 0 1-1.232 1.667l-.038-5.592" fill="#D9292B"/>
        <path d="M34.881 23.955c.01 4.952.018 9.904.026 14.856l-.407.006-.045-5.326c.01-2.836.012-5.672.034-8.508.003-.373-.19-.857.392-1.028" fill="#1A1A18"/>
        <path d="M31.012 17.23 30.99 2.443c.166-.034.314-.003.432.127l.015 14.089c-.081.234-.182.453-.424.57M24.56 77.49l-.032-12.765c.11-.718.138-1.453.449-2.13.01 4.967.02 9.935.032 14.903l-.449-.007M12.972 56.77l-.021 14.219c-.23-.054-.342-.233-.443-.422 0-4.552.003-9.104.004-13.657.121-.152.279-.183.46-.14M24.528 53.895l.036-13 .449.034-.035 14.545c-.307-.482-.32-1.047-.45-1.58" fill="#D7D7D7"/>
        <path d="M40.087 7.321c.527.302.928.73 1.251 1.236l-.04 4.283c-.518-.353-.984-.754-1.26-1.334l.05-4.185" fill="#D2322E"/>
        <path d="M41.792 8.97c.485.415.994.807 1.24 1.426l-.063 4.185c-.474-.37-.908-.776-1.238-1.282l.061-4.329M19.37 75.838c-.453-.186-.916-.354-1.254-.734l.033-3.913 1.227-.21-.006 4.857" fill="#D9292B"/>
        <path d="m40.04 25.443.016 13.363-.38.011-.011-13.316.376-.058" fill="#2D2824"/>
        <path d="M14.606 72.584 14.6 46.098a.308.308 0 0 1 .177-.1l.063 8.535.002.41c-.01 5.46-.02 10.92-.032 16.381-.001.477-.021.955-.032 1.432a98.367 98.367 0 0 1-.173-.172" fill="#77544E"/>
        <path d="M34.285 38.815H33.26l-.017-5.256 1.05-.02-.008 5.276" fill="#D9292B"/>
        <path d="m46.324 38.816-1.156-.015-.044-3.267c.392-.67.786-1.339 1.18-2.008l.02 5.29" fill="#D2322E"/>
        <path d="m36.578 38.817-.024-25.253.211-.221.01 25.475-.098.015-.1-.016" fill="#DE5745"/>
        <path d="m32.674 15.004-.005-12.066.41.112.038 11.37c-.04.275-.206.457-.443.584" fill="#2D2824"/>
        <path d="M45.177 13.315c.573.515.936 1.16 1.184 1.878l-.059 3.445c-.114-.786-.815-1.198-1.177-1.826l.052-3.497" fill="#D2322E"/>
        <path d="M43.63 11.085c.436.454.87.91 1.07 1.525l-.044 3.716c-.501-.24-.785-.685-1.072-1.126l.047-4.115" fill="#D9292B"/>
        <path d="m7.817 40.93.017 10.068c-.068.264-.176.5-.441.627l-.026-10.73.45.035" fill="#D7D7D7"/>
        <path d="M38.275 5.895c.545.157.916.534 1.24.97-.02 1.372-.041 2.743-.063 4.115-.285-.127-.4-.356-.383-.655.045-.743-.301-1.298-.843-1.763l.05-2.667" fill="#D9292B"/>
        <path d="m7.832 56.566-.049 7.357c-.299-.169-.356-.479-.452-.765l.013-10.185.445-.139.044 2.252c-.325.493-.352.986 0 1.48" fill="#D7D7D7"/>
        <path d="M36.597 4.72c.473.19.915.428 1.253.823l-.032 2.837-1.213.192-.008-3.852" fill="#D9292B"/>
        <path d="m23.315 40.89-.026 9.965c-.21-.082-.333-.248-.421-.444l.033-9.51.414-.01M23.287 67.37l.01 9.84-.399-.102-.03-9.018c.091-.268.179-.538.419-.72" fill="#D7D7D7"/>
        <path d="m48.594 38.814.04-19.079.32.584c-.225.266-.148.585-.148.885-.002 5.87.001 11.74.003 17.61h-.215" fill="#DE5745"/>
        <path d="M5.703 40.901 5.67 59.603l-.313-.573c.253-.374.138-.798.14-1.199.012-5.646.014-11.293.018-16.94a.446.446 0 0 1 .19.01" fill="#D15F4E"/>
        <path d="m9.026 66.051.056-8.94c.175.029.351.057.401.27l-.053 9.28c-.277-.109-.257-.414-.404-.61" fill="#2D2824"/>
        <path d="m34.924 3.846.02 8.26-.427.541L34.5 3.65c.141.066.282.13.423.197" fill="#1A1A18"/>
        <path d="m16.47 40.907 1.058-.02c-.008 1.327-.018 2.654-.027 3.98-.71-.467-1.18-1.061-1.053-1.97l.022-1.99" fill="#D9292B"/>
        <path d="m12.974 40.908 3.029.025-.005 1.147c-1.897-.925-2.804-.352-2.844 1.799-.003.174-.007.335-.157.452l-.023-3.423" fill="#D2322E"/>
        <path d="m9.086 49.393-.014-8.486.393-.007.019 8.014-.398.479" fill="#2D2824"/>
        <path d="M16.081 57.347c-.008 5.002-.016 10.005-.027 15.008 0 .445-.026.89-.039 1.335a.51.51 0 0 1-.156-.065c.002-5.096.003-10.193.01-15.29 0-.408.034-.817.053-1.226l.16.238" fill="#9F584F"/>
        <path d="M21.148 48.652v-7.727l.489.002-.014 8.172a.815.815 0 0 1-.475-.447" fill="#2D2824"/>
        <path d="m38.247 38.816.038-15.446.177.257-.007 15.186c-.07 0-.139.002-.208.003" fill="#D15F4E"/>
        <path d="M10.642 68.285a2.59 2.59 0 0 1-1.034-1.407l.058-9.303c.38.28.22.687.223 1.038a380.74 380.74 0 0 1-.004 7.145c-.008.61.124.987.806.979l-.049 1.548" fill="#D9292B"/>
        <path d="m31.398 38.814.015-14.98.1-.005.1.02v14.965h-.215" fill="#DE5745"/>
        <path d="m50.259 38.816.044-14.36c.174.15.158.358.176.556l-.021 13.802-.1.015-.1-.013" fill="#9F584F"/>
        <path d="m21.146 76.5-.012-6.363c.096-.216.243-.375.49-.42l.006 6.97c-.2.036-.38.02-.484-.187" fill="#2D2824"/>
        <path d="M31.436 16.66 31.42 2.571c.064 0 .125.015.184.042l.016 13.827-.185.22M12.512 56.91l-.005 13.657-.17-.173.008-13.416a.374.374 0 0 1 .167-.068" fill="#DE5745"/>
        <path d="m39.665 25.502.01 13.315-.098.013-.096-.016.034-13.329a.372.372 0 0 1 .15.017" fill="#77544E"/>
        <path d="m44.68 38.791-1.264.023-.032-1.63 1.269-1.047.028 2.654" fill="#D9292B"/>
        <path d="m2.194 40.889.41.015c-.002.41.008.821-.007 1.231-.074 2.01.165 4.028-.13 6.033l-.314-3.022.04-4.257M46.904 32.243l.032 6.57-.404.002-.038-5.69c.066-.326.174-.633.41-.882M19.358 46.84l.029-5.95.414.015-.029 6.338-.414-.403" fill="#D7D7D7"/>
        <path d="m11.293 40.9.038 5.591-.428.557-.033-6.148h.423" fill="#1A1A18"/>
        <path d="M33.117 14.421 33.078 3.05a.316.316 0 0 1 .188.031l.015 11.228a.516.516 0 0 1-.164.112" fill="#9F584F"/>
        <path d="m32.651 38.804.025-5.24.392.007-.005 5.245-.412-.012" fill="#2D2824"/>
        <path d="m19.37 75.838.006-4.857.403-.167c-.019 1.73.125 3.461-.081 5.188l-.328-.164" fill="#D7D7D7"/>
        <path d="m22.9 40.901-.032 9.51a891.43 891.43 0 0 0-.188-.176l.031-9.344a.449.449 0 0 1 .19.01" fill="#D15F4E"/>
        <path d="m9.666 57.575-.058 9.303-.177-.216.052-9.281.183.194" fill="#77544E"/>
        <path d="M52.15 33.154c.357 1.738.398 3.497.389 5.262-.002.297-.116.446-.43.4l.041-5.662" fill="#D9292B"/>
        <path d="m51.482 38.815.047-9.244c.26.307.168.679.19 1.029l-.016 8.216-.22-.001M34.5 3.65l.017 8.997-.189.243.003-9.308c.06.013.117.036.17.067" fill="#9F584F"/>
        <path d="m41.792 8.97-.061 4.329c-.22-.083-.345-.254-.433-.46l.04-4.283c.24.042.352.224.454.414" fill="#D7D7D7"/>
        <path d="M2.468 48.168c.294-2.005.055-4.023.129-6.033.015-.41.005-.82.006-1.231a.412.412 0 0 1 .183-.009l-.02 8.599-.298-1.326" fill="#9F584F"/>
        <path d="m22.867 68.09.031 9.018-.207-.014-.001-8.772.177-.232" fill="#D15F4E"/>
        <path d="m46.973 16.225-.068 3.85-.415-.116.063-4.444c.251.172.333.443.42.71" fill="#141514"/>
        <path d="m18.141 40.897-.027 4.587c-.215-.072-.33-.24-.426-.429l.034-4.157.419-.001" fill="#D7D7D7"/>
        <path d="m40.087 7.321-.048 4.184c-.202-.077-.357-.2-.412-.42l.055-4.129c.23.02.281.231.405.365" fill="#2D2824"/>
        <path d="m42.969 14.58.063-4.184.42.477-.06 4.113-.423-.405M51.703 38.816l.016-8.216c.33.521.183 1.126.3 1.685-.238 2.172-.037 4.351-.11 6.526l-.206.005M36.597 4.72l.008 3.852-.431.372-.013-4.447.436.223M18.15 71.191l-.034 3.913c-.178-.015-.324-.083-.418-.242l.052-3.901.4.23" fill="#D7D7D7"/>
        <path d="M41.563 38.608c0-.176-.002-.352-.003-.527.419-.34.9-.55 1.425-.663l.018 1.397c-.493.03-1.001.148-1.44-.207" fill="#D9292B"/>
        <path d="m9.484 48.914-.02-8.014a.327.327 0 0 1 .17-.002l.032 7.796-.182.22" fill="#77544E"/>
        <path d="m44.656 16.325.045-3.715c.26.167.403.413.476.705l-.053 3.497-.468-.487" fill="#2D2824"/>
        <path d="m12.974 40.908.023 3.423c-.09.213-.194.411-.433.495l-.023-3.914c.144 0 .288-.003.433-.004" fill="#D7D7D7"/>
        <path d="m10.642 68.285.049-1.548.595.006-.016 2.373c-.303-.207-.6-.42-.628-.831" fill="#1A1A18"/>
        <path d="M51.908 38.811c.074-2.175-.127-4.354.11-6.526.045.29.089.578.132.869l-.04 5.662-.102.017-.1-.022" fill="#2D2824"/>
        <path d="m19.772 47.243.03-6.338c.059-.018.12-.02.18-.01l-.042 6.465a.608.608 0 0 1-.168-.117" fill="#9F584F"/>
        <path d="m10.87 40.9.033 6.148-.193.243-.024-6.395a.464.464 0 0 1 .184.004" fill="#D15F4E"/>
        <path d="m44.68 38.791-.027-2.653.471-.604.044 3.267-.487-.01" fill="#2D2824"/>
        <path d="m2.194 40.889-.04 4.257c-.304-1.28-.166-2.595-.327-3.887-.029-.233.116-.372.367-.37" fill="#D2322E"/>
        <path d="m37.818 8.38.032-2.837c.187.064.348.159.425.352l-.049 2.667-.408-.182" fill="#1A1A18"/>
        <path d="m46.494 33.126.038 5.689h-.208l-.02-5.29.19-.399M19.698 76.002c.206-1.727.062-3.459.08-5.188a.342.342 0 0 1 .198-.051l.003 5.317c-.094-.025-.187-.052-.281-.078M34.285 38.815l.007-5.277a.299.299 0 0 1 .163-.047l.046 5.326a18.122 18.122 0 0 0-.216-.002M33.063 38.816l.005-5.246.086-.023.09.012.016 5.255-.098.015-.099-.013M46.553 15.515l-.063 4.444a.275.275 0 0 1-.129 0l-.062-.945.003-.376.06-3.445.19.322" fill="#9F584F"/>
        <path d="m43.392 14.986.06-4.113c.06.07.119.141.178.213l-.046 4.114-.192-.214" fill="#D15F4E"/>
        <path d="m17.75 70.961-.052 3.901c-.12-.058-.238-.117-.357-.176.42-1.302.024-2.648.218-3.963l.191.238M17.722 40.898c-.01 1.386-.023 2.772-.034 4.158a29.05 29.05 0 0 0-.187-.188l.028-3.98a.413.413 0 0 1 .193.01" fill="#DE5745"/>
        <path d="m39.682 6.956-.055 4.129a.345.345 0 0 1-.175-.105l.064-4.115a.38.38 0 0 1 .166.091" fill="#77544E"/>
        <path d="m15.998 42.08.005-1.147.467-.026-.022 1.99-.45-.817" fill="#2D2824"/>
        <path d="m43.003 38.815-.018-1.397.399-.233.032 1.63h-.413" fill="#141514"/>
        <path d="M13.244 32.622c0-.882-.342-2.041.093-2.57.465-.565 1.68-.166 2.565-.174 2.539-.022 2.54-.007 2.538 2.554 0 .82.036 1.645-.033 2.46-.125 1.479-1.228 2.41-2.708 2.357-1.417-.05-2.498-1.141-2.532-2.575-.016-.683-.003-1.367-.003-2.051h.08m2.613 1.063c.329-.098.486-.318.447-.673-.036-.33-.254-.498-.55-.444-.324.056-.566.278-.49.647.058.286.264.46.593.47m.932.626c-.325.049-.515.27-.475.61.034.287.242.462.557.462.338 0 .496-.2.492-.503-.006-.331-.147-.58-.574-.569m-2.055 1.064c.372-.017.526-.207.516-.526-.008-.307-.15-.527-.485-.527-.372 0-.566.225-.545.58.018.314.24.461.514.473m.01-3.492c.362-.02.516-.21.506-.53-.01-.306-.154-.529-.486-.529-.37 0-.565.227-.545.582.019.317.246.457.524.477m2.63-.514c-.053-.322-.168-.585-.567-.553-.323.025-.497.248-.499.526-.003.34.219.545.58.545.34 0 .46-.218.485-.518M18.415 14.653c0 .754.052 1.513-.012 2.262-.123 1.445-1.308 2.447-2.724 2.374-1.41-.073-2.49-1.182-2.51-2.618-.02-1.372.02-2.745-.016-4.116-.014-.537.144-.705.69-.69 1.277.039 2.556.037 3.832.002.563-.017.818.12.777.728-.047.683-.011 1.372-.011 2.058h-.026m-1.054 2.179c.02-.371-.214-.516-.511-.501-.344.017-.58.247-.543.596.029.273.211.513.538.502.378-.013.508-.272.516-.597m-1.052-1.704c-.017-.348-.178-.586-.553-.564-.306.02-.496.23-.5.532-.004.361.236.557.579.558.318.003.483-.198.474-.526m-1.554 2.312c.354-.066.515-.27.503-.632-.012-.35-.24-.492-.524-.478-.28.014-.518.185-.527.51-.01.361.203.544.548.6m2.616-4.025c-.004-.344-.132-.564-.467-.577-.364-.014-.582.198-.597.54a.51.51 0 0 0 .482.552c.38.038.534-.214.582-.515m-2.112-.17c.038-.207-.157-.382-.475-.395-.306-.012-.54.154-.566.471-.03.361.172.598.537.6.32.004.485-.21.504-.675M24.975 23.723c0 .65.017 1.3-.003 1.95-.045 1.472-1.067 2.572-2.459 2.672-1.401.1-2.711-.939-2.817-2.41-.108-1.498-.028-3.008-.052-4.512-.006-.44.23-.494.585-.492 1.411.009 2.823.016 4.234-.004.415-.005.53.152.519.539-.022.751-.007 1.505-.007 2.257m-3.134-1.295c-.092-.271-.218-.553-.59-.555-.317-.001-.517.215-.519.514-.002.328.17.59.545.598.334.005.443-.263.564-.557m-.014 3.511c-.066-.322-.228-.578-.59-.571-.313.006-.504.228-.507.528-.004.29.16.536.463.58.38.058.522-.23.634-.537m2.106-.084c-.11-.283-.285-.522-.651-.478-.328.041-.446.282-.422.583.024.302.194.524.509.518.357-.007.524-.253.564-.623m-.53-2.859c.339-.082.553-.286.509-.638-.037-.295-.266-.482-.563-.48-.31 0-.49.195-.488.52.001.356.18.559.543.598m-.525 1.136c-.099-.322-.262-.57-.639-.516-.32.047-.442.294-.439.583.003.31.177.508.504.5.362-.009.53-.234.574-.567M13.219 23.713c0-.886-.35-2.074.09-2.58.519-.595 1.745-.161 2.662-.189.787-.024 1.82-.256 2.3.138.512.42.14 1.483.164 2.265.024.822.039 1.648-.012 2.467-.094 1.515-1.263 2.588-2.696 2.531-1.455-.057-2.536-1.183-2.56-2.678-.011-.651-.003-1.302-.003-1.954h.055m3.665 2.776c.347-.076.503-.302.482-.651-.02-.335-.251-.505-.543-.467-.324.042-.573.27-.511.63a.555.555 0 0 0 .572.488m.48-4.08c.02-.353-.184-.532-.49-.53-.345.002-.579.228-.567.575.01.286.198.52.513.529.377.01.521-.246.545-.575m-2.108 3.401c.02-.278-.213-.449-.498-.438-.326.012-.583.214-.553.591.023.304.222.517.523.517.358-.001.538-.236.528-.67m0-3.388c.021-.338-.163-.534-.47-.538-.34-.005-.581.186-.58.555 0 .311.194.518.492.541.37.028.542-.208.558-.558m1.038 1.915c.018-.418-.093-.662-.418-.707-.37-.05-.59.164-.612.52-.02.319.196.51.498.538.307.028.533-.106.532-.35M11.925 23.722c0 .652.008 1.303-.002 1.954-.023 1.505-1.108 2.637-2.55 2.67a2.62 2.62 0 0 1-2.69-2.538c-.05-1.403-.002-2.81-.024-4.214-.007-.45.069-.685.61-.671 1.378.035 2.758.024 4.138.004.41-.006.536.14.524.534-.023.753-.006 1.508-.006 2.26m-3.11 2.21c-.06-.3-.233-.55-.58-.563-.302-.01-.506.174-.507.508 0 .353.16.596.53.603.322.006.458-.241.556-.548m-.01-3.482c-.048-.339-.238-.569-.585-.572-.313-.004-.496.196-.49.522.006.352.176.592.547.583.314-.007.457-.245.528-.533m2.094 3.46c-.03-.343-.25-.545-.59-.536-.303.007-.482.203-.475.537.007.318.159.532.461.563.367.039.545-.2.604-.563m-.006-3.46c-.02-.383-.246-.578-.586-.57-.303.007-.48.204-.473.537.007.316.157.531.462.56.366.036.545-.198.597-.527M9.84 24.138c-.048-.298-.21-.514-.527-.515-.383-.001-.53.243-.517.606.012.354.234.487.539.458.302-.03.487-.223.505-.549M40.92 63.848c0 .651.022 1.302-.004 1.951-.064 1.591-1.163 2.694-2.654 2.69-1.484-.004-2.628-1.112-2.68-2.68-.046-1.368.008-2.74-.02-4.108-.01-.51.19-.64.668-.632 1.343.024 2.689.036 4.031-.004.585-.017.69.231.668.73-.032.683-.008 1.368-.008 2.053m-3.168-1.28c-.07-.246-.157-.5-.499-.522-.375-.024-.596.187-.604.53-.006.276.151.524.478.56.394.043.524-.231.625-.568m.523 1.185c-.375.024-.557.268-.563.593-.005.294.192.51.51.528.322.016.53-.207.564-.48.04-.332-.158-.568-.51-.641m-1.059 1.778c-.39.04-.58.253-.566.541.014.32.193.594.58.559.374-.035.525-.314.49-.64-.032-.293-.24-.476-.504-.46m2.66-2.974c-.097-.256-.22-.52-.603-.512-.337.006-.497.214-.495.517.002.286.131.535.456.572.378.042.54-.203.642-.577m-.52 2.979c-.347-.002-.554.146-.57.468-.018.336.117.597.496.629.335.027.517-.209.559-.477.055-.348-.17-.554-.486-.62M40.92 45.76c0 .685.023 1.371-.004 2.056-.061 1.507-1.163 2.657-2.569 2.713-1.41.056-2.695-1.114-2.76-2.625-.062-1.403.001-2.81-.024-4.214-.008-.48.216-.566.626-.562 1.38.013 2.76.026 4.139-.006.547-.013.616.242.6.685-.026.65-.007 1.301-.007 1.952m-2.11.595c-.06-.321-.203-.551-.592-.545-.348.005-.505.231-.506.51 0 .265.118.527.465.56.39.038.541-.2.633-.525m1.055-1.73c-.055-.321-.205-.591-.563-.603-.316-.01-.487.234-.523.522-.039.308.14.55.431.6.362.064.533-.212.655-.52m-2.124-.045c-.085-.294-.222-.585-.594-.555a.543.543 0 0 0-.496.556c.002.334.235.59.584.57.289-.017.459-.257.506-.57m-.646 2.926c-.241.12-.499.31-.44.656.046.27.259.518.568.481.337-.04.56-.296.496-.639-.049-.261-.228-.494-.624-.498m2.788.552c-.119-.23-.21-.545-.589-.54-.318.003-.483.242-.515.53-.035.307.144.548.438.59.356.051.538-.21.666-.58M35.533 54.856c.04-.849-.238-1.974.203-2.473.517-.586 1.683-.188 2.564-.187.846.002 1.97-.392 2.464.176.417.48.14 1.56.154 2.376.013.684.02 1.37 0 2.055-.05 1.563-1.17 2.741-2.61 2.768-1.47.026-2.67-1.176-2.732-2.762-.025-.65-.004-1.301-.004-1.952l-.039-.001m1.677 1.695c-.32.014-.51.24-.555.5-.058.344.174.591.51.632.315.04.526-.197.559-.479.038-.334-.16-.566-.514-.653m1.564.554c.016.35.186.57.491.577.349.009.58-.23.583-.568a.527.527 0 0 0-.5-.546c-.374-.026-.52.244-.574.537m-1.64-4.058c-.271.111-.52.303-.482.646.032.278.245.506.553.5a.518.518 0 0 0 .522-.522c.008-.331-.193-.559-.593-.624m2.144.011c-.342.078-.52.305-.494.65.022.311.243.522.54.485.323-.04.576-.282.522-.63a.574.574 0 0 0-.568-.505m-.991 1.8c-.328-.024-.537.142-.563.447-.029.328.102.6.491.628.391.027.569-.239.578-.557.007-.281-.178-.5-.506-.518M29.112 54.733c.071-.69-.388-1.84.16-2.384.542-.542 1.698-.153 2.583-.16 2.498-.022 2.5-.008 2.498 2.476 0 .822.026 1.646-.018 2.467a2.555 2.555 0 0 1-2.571 2.436c-1.395.004-2.596-1.11-2.648-2.486-.027-.718-.004-1.44-.004-2.349m1.518-1.675c-.34.1-.52.313-.474.673.041.325.283.484.568.457.356-.034.528-.285.47-.651-.05-.314-.251-.46-.564-.479m.568 4.159c.019-.408-.17-.643-.523-.65-.297-.007-.493.197-.524.512-.037.388.212.595.534.607.268.009.525-.16.513-.47m2.098-3.61c-.02-.31-.19-.53-.495-.532-.353-.004-.575.23-.556.584.019.353.27.553.615.525.313-.027.457-.258.436-.578m-.013 3.357c-.021-.191-.19-.431-.564-.387-.297.036-.491.248-.475.558.017.357.257.557.6.542.315-.014.47-.236.44-.713m-1.048-1.555c.02-.334-.144-.526-.468-.538-.306-.01-.536.142-.56.462-.025.355.164.585.534.591.329.005.474-.21.494-.515M47.376 55.062c0 .652.016 1.304-.004 1.954-.046 1.444-1.151 2.536-2.565 2.553a2.606 2.606 0 0 1-2.659-2.573c-.028-1.37.013-2.742-.017-4.112-.011-.51.097-.734.674-.716a75.13 75.13 0 0 0 3.931.004c.485-.01.677.124.651.63-.038.751-.01 1.507-.01 2.26m-3.652-2.009c-.345.063-.534.243-.532.617.002.344.217.522.5.522.273 0 .525-.166.55-.494.03-.366-.179-.558-.518-.645m-.068 3.504c-.336.095-.496.308-.46.67.036.338.263.488.552.447.334-.047.556-.272.487-.645-.055-.298-.257-.46-.58-.472m2.676.617c-.021-.404-.213-.605-.512-.605-.354 0-.558.231-.539.595.02.373.266.547.612.506.308-.036.467-.253.439-.496m-.002-3.508c-.017-.39-.21-.593-.508-.594-.355-.002-.558.232-.541.596.018.375.266.55.61.51.306-.035.47-.252.44-.512m-1.05 1.767c.008-.366-.184-.546-.49-.562-.299-.016-.53.12-.543.462-.013.36.151.594.53.588.318-.005.476-.213.502-.488" fill="#2A2960"/>
        <path d="m17.75 70.961-.19-.238-.005-.762.193-.208.407-.107c.45-.091.707.886 1.26.225.227-.1.352-.285.425-.511a.405.405 0 0 0 .18-.098c.476-.452.924-.927 1.195-1.537.297-.15.3-.482.452-.722a4.895 4.895 0 0 0 1.071-2.634c.243-.301.128-.675.209-1.01.252-1.664.242-3.33 0-4.995-.137-.586.115-1.22-.23-1.78-.37-.422-.729-.184-1.087.021-.202-.046-.355.031-.48.183-.464.048-.846.264-1.184.569a.415.415 0 0 0-.189.056l-.402.2-1.254.645-.41.182-.197.09c-.527.228-.786-.095-1.01-.487-.13-.238-.137-.551-.423-.696l-.16-.238-1.078-2.166-.002-.41 1.032-.083.094.013.095-.016.4-.029c.37.07.739.128 1.084-.093.06 0 .12-.01.177-.03l.422-.021 1.245-.031.46-.061c.47.19.881-.072 1.315-.165.196.068.338-.027.471-.153.737.119 1.09-.41 1.483-.87.402.405 1.283.07 1.409.9.13.533.143 1.098.45 1.58.317 2.373.25 4.746-.002 7.12-.31.677-.338 1.413-.448 2.13-.502.841-.906 1.727-1.24 2.646-.241.182-.329.452-.42.72l-.178.232c-.37.455-.856.821-1.067 1.396-.246.044-.393.203-.49.42-.445.099-.812.342-1.157.625a.342.342 0 0 0-.197.05l-.403.169-1.226.21-.4-.23M15.998 42.08l.45.818c-.126.908.343 1.502 1.053 1.97l.187.187c.096.189.211.357.426.429a4.24 4.24 0 0 0 1.244 1.356l.414.402c.05.05.105.088.168.118.264.56.725.936 1.209 1.292.091.218.256.36.474.446.241.481.642.815 1.057 1.136l.188.176c.088.197.21.363.421.446.183.567.54 1.152-.17 1.628-.481-.487-.79-1.148-1.467-1.438-.157-.147-.225-.392-.479-.434-.304-.547-.767-.927-1.308-1.224-.095-.21-.23-.386-.451-.477a5.532 5.532 0 0 0-1.243-1.214l-.421-.395-.212-.217c-.308-.385-.705-.179-1.074-.158l-.383-.218a.432.432 0 0 0-.17-.091c-.361-.236-.441-.98-1.134-.62a.308.308 0 0 0-.176.1l-.409.362c-.357.274-.74.48-1.21.455-.293-.071-.366.16-.475.341l-.17.182a3.68 3.68 0 0 0-1.068 1.292c-.257.17-.501.352-.626.648-.393.41-.82.793-1.035 1.34l-.31.215-.27.416c-.54.392-.953.886-1.238 1.485l-.446.139c-.44.1-.706.012-.47-.495.14-.3.344-.57.519-.853.265-.126.373-.363.441-.627.575-.414.946-.985 1.251-1.606l.399-.478.182-.22c.396-.432.834-.834 1.044-1.403l.193-.243.427-.557a4.904 4.904 0 0 0 1.234-1.666c.239-.083.343-.281.433-.494.15-.117.153-.278.157-.452.04-2.151.948-2.724 2.844-1.8" fill="#C3A133"/>
        <path d="m11.286 66.743-.595-.006c-.682.007-.814-.369-.806-.98.03-2.38.019-4.763.004-7.144-.002-.35.158-.758-.223-1.038l-.183-.195c-.05-.212-.226-.24-.4-.269l-1.25-.545c-.352-.494-.324-.987 0-1.48l1.25-.853c.207-.015.354-.112.426-.31l.174-.137c.272-.354.136-.77.171-1.159.048-.53.255-.882.837-.911l.587-.02c.366.41.216.908.185 1.358-.053.754.168 1.306.886 1.617l.087.024.09-.003c.127.111.26.208.444.159.856.789.856 1.186.002 1.92-.181-.044-.339-.013-.46.14a.374.374 0 0 0-.167.067c-.615.215-.638.704-.635 1.25.015 2.503.01 5.006.001 7.509-.001.38.164.859-.425 1.006" fill="#C3A133"/>
        <path d="M12.97 54.852c-.184.047-.317-.049-.443-.16l-.02-7.437c.11-.18.182-.411.475-.34l-.013 7.937" fill="#D7D7D7"/>
        <path d="m43.384 37.185-.399.233a3.322 3.322 0 0 0-1.425.663c-.067-.014-.133-.03-.2-.04-.523-.085-1.054-.198-1.066-.862-.012-.642.57-.66.997-.823.092.23.022.618.483.485.61-.196.956-.668 1.261-1.184l.418-.517.18-.219c.495-.53.944-1.087 1.063-1.832.288-.214.41-.508.423-.856.18-.152.163-.37.188-.574.058-.119.146-.233.17-.358.454-2.4.288-4.81.098-7.218-.021-.265.06-.637-.294-.814a.288.288 0 0 0-.195-.023l-.397.06c-.406-.024-.753.136-1.083.347l-.204.158c-.173-.008-.322.04-.423.191a2.61 2.61 0 0 0-1.241.638c-.2-.012-.334.092-.44.247-.477.055-.883.27-1.257.556l-.376.059a.37.37 0 0 0-.15-.017c-.232-.685-.553-1.322-1.053-1.858l-.177-.257c-.062-.3-.185-.566-.43-.764.04-.434-.575-.858-.024-1.302.14-.003.28-.004.421-.005l.096.01.096-.016c.361.037.73.13 1.056-.124h.079l.076-.016.4-.024 1.26-.049.442.01c.433.066.857.061 1.253-.16l.409-.027.207-.006c.406.032.77-.063 1.07-.348.194-.004.39-.006.481-.225l1.184-.365c.043.01.086.01.129 0l.415.116c1.431 4.057 1.101 8.113 0 12.17-.237.247-.345.554-.411.88l-.19.4-1.18 2.009-.471.604-1.27 1.047M39.452 10.98a.344.344 0 0 0 .175.105c.055.22.21.343.412.42.275.58.74.982 1.259 1.335.088.205.213.376.433.459.33.506.764.913 1.238 1.282l.423.405.192.214c.287.44.57.886 1.072 1.126l.468.486c.363.628 1.064 1.04 1.178 1.826l-.003.376c-.443.13-.75-.21-1.125-.32a.746.746 0 0 0-.477-.424c-.25-.46-.638-.786-1.062-1.075l-.185-.175-.417-.411a5.064 5.064 0 0 0-1.248-1.213c-.11-.173-.216-.352-.45-.384-.32-.51-.716-.948-1.259-1.237l-.415-.04a.329.329 0 0 0-.183.016c-.415.017-.667-.329-1.018-.454l-.181-.173-.427-.364c-.633-.305-.746.348-1.087.583l-.211.22-.408.211c-.67-.248-1.01.129-1.272.657a.906.906 0 0 0-.418.522l-.187.202c-.534.377-.894.904-1.244 1.437l-.398.47c-.499.423-.905.925-1.263 1.467l-.418.515c-.353.364-.774.635-1.225.863-.474-.366-.09-.688.053-1.023.488-.495.92-1.033 1.238-1.655.242-.116.343-.335.424-.57l.185-.219c.44-.415.832-.864 1.053-1.436.237-.127.403-.308.443-.583a.504.504 0 0 0 .164-.112c.403-.433.806-.866 1.047-1.418l.189-.244.426-.542c.491-.54 1.087-.985.865-1.907-.089-.368.232-.834.366-1.254l.43-.372 1.214-.192.408.182c.542.465.888 1.02.843 1.763-.018.299.098.528.383.655" fill="#C3A133"/>
        <path d="m37.852 12.76.427.364-.027 8.174-.421.006.021-8.544" fill="#1A1A18"/>
        <path d="m33.243 33.559-.089-.012-.086.023-.392-.005c-.013-2.775-.033-5.55-.033-8.325 0-.738-.244-1.251-1.03-1.39l-.1-.02-.1.003-.413-.19c-.919-.807-.918-.98.01-2.153l.413-.343c.632-.023.99-.3 1.03-.973.034-.564.145-1.124.221-1.686l.402-.02c.842-.066 1.139.303 1.046 1.138-.046.407-.198.882.15 1.265a.36.36 0 0 0 .191.064l.42.442c.35.32.802.365 1.238.452.182.532.198 1.065 0 1.597-.495-.012-.925.125-1.24.53-.582.17-.389.654-.392 1.027-.022 2.835-.025 5.672-.034 8.508a.298.298 0 0 0-.163.048l-1.049.02" fill="#C3A133"/>
        <path d="m31.423 21.147-.413.343-.064-2.445.418-.516.06 2.618" fill="#141514"/>
        <path d="m17.748 69.753-.193.208-.04-11.43.195-.09.038 11.312" fill="#DE5745"/>
        <path d="M41.774 36.841c-.462.133-.39-.255-.483-.485l.008-11.47c.105-.154.24-.258.439-.246l.036 12.201" fill="#D7D7D7"/>
        <path d="M21.652 51.047c.677.29.986.95 1.467 1.437v.51c-.393.46-.746.988-1.483.871l.016-2.818" fill="#D2322E"/>
        <path d="M36.12 21.83c-.435-.089-.886-.133-1.236-.453l-.01-6.946c.262-.528.603-.905 1.272-.657l-.025 8.055M14.777 45.997c.693-.36.773.385 1.135.621l-.039 7.832-1.032.083-.064-8.536" fill="#D9292B"/>
        <path d="m9.083 54.233-1.25.853-.043-2.252c.285-.599.698-1.093 1.237-1.484l.056 2.883M45.174 18.693c.375.11.682.451 1.125.321l.062.945-1.183.365-.004-1.63" fill="#D2322E"/>
        <path d="M15.857 33.686c-.33-.01-.535-.184-.593-.47-.076-.369.167-.59.49-.648.296-.053.514.115.55.445.04.355-.118.575-.447.673M16.789 34.312c.427-.012.569.238.574.57.004.302-.155.502-.492.502-.315 0-.523-.174-.557-.462-.04-.34.15-.561.475-.61" fill="#DEDEE8"/>
        <path d="M14.734 35.376c-.274-.012-.496-.16-.514-.474-.021-.354.173-.579.545-.579.334 0 .477.22.485.527.01.318-.144.509-.516.526M14.743 31.884c-.278-.02-.505-.16-.524-.477-.02-.355.176-.582.545-.582.332 0 .477.223.486.53.01.319-.144.508-.507.529" fill="#F7F5F2"/>
        <path d="M17.37 31.37c-.023.3-.142.518-.484.518-.36 0-.582-.204-.58-.544.003-.279.177-.502.5-.527.399-.032.514.23.565.553M17.361 16.831c-.008.326-.138.585-.516.598-.327.011-.509-.23-.538-.502-.036-.349.2-.58.543-.596.297-.015.531.13.511.5M16.31 15.128c.009.327-.157.53-.476.526-.342-.001-.582-.197-.577-.558.003-.3.193-.513.499-.532.375-.022.536.215.553.564M14.755 17.44c-.345-.056-.557-.239-.548-.6.01-.325.246-.496.527-.51.285-.015.512.128.523.478.013.362-.148.566-.502.632M17.371 13.415c-.048.3-.202.553-.582.515a.509.509 0 0 1-.481-.552c.014-.342.232-.554.596-.54.335.013.463.233.467.577" fill="#DEDEE8"/>
        <path d="M15.259 13.246c-.019.465-.184.679-.504.675-.365-.002-.567-.239-.537-.6.027-.317.26-.483.565-.47.319.012.514.187.476.395" fill="#F7F5F2"/>
        <path d="M21.84 22.428c-.12.294-.23.562-.563.557-.375-.007-.547-.27-.545-.598.003-.299.202-.515.52-.514.37.002.497.284.589.555M21.827 25.94c-.112.307-.254.594-.634.537-.302-.045-.467-.292-.463-.58.003-.3.194-.523.506-.529.363-.007.524.25.59.571M23.933 25.855c-.04.37-.207.616-.564.623-.315.006-.485-.216-.509-.518-.024-.3.094-.542.422-.582.366-.045.54.194.651.477M23.404 22.996c-.364-.04-.541-.242-.543-.598-.002-.325.177-.52.488-.52.297-.002.525.185.562.48.045.352-.17.556-.507.638M22.88 24.132c-.045.333-.213.558-.574.567-.328.008-.502-.19-.505-.5-.003-.29.12-.536.439-.583.377-.054.54.194.64.516M16.884 26.489A.556.556 0 0 1 16.31 26c-.061-.36.188-.588.512-.63.292-.038.523.132.543.467.021.349-.135.575-.482.65M17.365 22.408c-.024.33-.168.586-.545.575-.315-.01-.503-.243-.513-.529-.012-.347.222-.573.568-.575.305-.002.508.177.49.53M15.257 25.81c.01.433-.17.668-.528.669-.301 0-.5-.214-.523-.517-.03-.376.227-.579.553-.591.285-.011.517.16.498.438M15.257 22.42c-.016.351-.188.587-.558.559-.298-.023-.49-.23-.492-.541-.001-.37.241-.56.58-.555.307.004.491.2.47.538" fill="#DEDEE8"/>
        <path d="M16.295 24.336c.001.245-.225.379-.532.351-.302-.027-.518-.22-.498-.539.021-.355.242-.57.612-.519.325.044.436.289.418.707" fill="#F7F5F2"/>
        <path d="M8.814 25.93c-.098.308-.234.555-.555.55-.37-.008-.531-.25-.53-.604 0-.334.203-.518.507-.508.346.012.519.263.578.563M8.804 22.449c-.07.288-.214.526-.528.533-.37.009-.54-.23-.547-.583-.006-.326.177-.526.49-.522.347.003.537.233.585.572M10.898 25.91c-.06.364-.237.602-.604.563-.302-.031-.454-.245-.461-.563-.007-.334.172-.53.474-.537.341-.009.56.193.591.537M10.892 22.45c-.052.33-.231.563-.597.528-.305-.03-.455-.245-.462-.561-.007-.333.17-.53.474-.537.34-.008.564.187.585.57" fill="#DEDEE8"/>
        <path d="M9.84 24.138c-.018.326-.203.52-.505.55-.305.029-.527-.105-.54-.459-.012-.363.135-.607.518-.606.318.001.479.217.527.515" fill="#F7F5F2"/>
        <path d="M37.753 62.567c-.101.338-.232.612-.625.569-.327-.036-.484-.284-.478-.56.008-.343.23-.554.604-.53.342.021.43.276.5.521M38.276 63.753c.353.073.551.31.51.64-.033.274-.24.497-.563.48-.318-.017-.515-.233-.51-.527.006-.325.188-.569.563-.593M37.218 65.531c.263-.016.472.167.504.46.035.326-.116.605-.49.64-.387.035-.566-.239-.58-.559-.013-.288.177-.5.566-.54M39.878 62.558c-.101.373-.264.618-.642.576-.325-.037-.454-.286-.456-.572-.002-.303.158-.51.495-.517.383-.008.507.256.603.513M39.357 65.536c.316.066.54.272.486.62-.042.268-.224.504-.558.477-.38-.032-.515-.293-.498-.629.017-.322.224-.47.57-.468M38.81 46.354c-.09.326-.243.563-.632.525-.347-.033-.465-.295-.464-.56 0-.28.157-.505.505-.51.388-.006.531.224.591.545M39.866 44.623c-.122.308-.293.584-.655.52-.29-.05-.47-.292-.431-.6.036-.288.207-.531.523-.522.358.012.507.282.563.602M37.742 44.578c-.047.314-.217.554-.506.57-.349.02-.582-.235-.584-.569a.543.543 0 0 1 .496-.556c.372-.03.51.261.594.555M37.096 47.505c.395.004.575.237.624.498.064.343-.16.599-.496.639-.309.037-.523-.211-.568-.481-.059-.345.199-.537.44-.656M39.884 48.057c-.128.37-.31.631-.666.58-.294-.042-.473-.283-.438-.59.032-.288.197-.527.515-.53.38-.005.47.31.589.54M37.21 56.551c.354.087.552.319.514.653-.033.282-.244.518-.558.48-.337-.042-.57-.29-.511-.632.044-.261.235-.487.555-.501M38.774 57.105c.054-.293.2-.563.574-.537.305.02.502.26.5.546-.002.338-.234.577-.583.568-.305-.008-.475-.228-.49-.577M37.134 53.047c.4.065.601.293.593.624a.518.518 0 0 1-.522.521c-.308.007-.521-.221-.553-.5-.039-.341.21-.534.482-.645M39.277 53.058c.337.016.528.24.569.504.054.349-.2.591-.521.63-.299.038-.519-.173-.541-.485-.025-.344.152-.57.493-.649M38.286 54.858c.33.017.514.237.506.518-.008.318-.186.584-.577.556-.388-.027-.52-.3-.491-.626.026-.306.235-.472.562-.448M30.63 53.058c.313.019.514.165.564.479.058.366-.113.617-.47.65-.285.028-.527-.131-.568-.456-.046-.36.134-.574.474-.673M31.198 57.217c.012.31-.245.478-.513.469-.322-.012-.571-.219-.534-.607.031-.315.227-.52.525-.512.353.007.54.242.522.65M33.296 53.605c.022.32-.123.552-.436.578-.344.028-.596-.172-.615-.525-.019-.354.203-.588.556-.585.306.004.475.222.495.532M33.283 56.962c.03.477-.124.7-.439.713-.343.015-.583-.185-.6-.542-.016-.31.178-.522.475-.558.374-.044.542.195.564.387" fill="#DEDEE8"/>
        <path d="M32.236 55.407c-.02.304-.165.52-.495.515-.37-.006-.558-.236-.533-.59.023-.321.254-.474.56-.463.324.012.488.204.468.538" fill="#F7F5F2"/>
        <path d="M43.725 53.053c.34.087.548.279.519.645-.026.328-.278.494-.552.494-.282 0-.497-.177-.499-.522-.002-.374.187-.554.532-.617M43.657 56.557c.322.012.524.174.579.472.07.373-.153.598-.487.645-.289.041-.516-.109-.55-.448-.038-.361.121-.574.458-.669M46.332 57.174c.028.243-.131.46-.44.496-.345.04-.591-.133-.611-.507-.019-.363.185-.595.54-.594.298 0 .49.201.51.605M46.33 53.666c.031.26-.133.477-.438.512-.345.04-.593-.135-.611-.51-.018-.364.186-.598.54-.596.3 0 .492.203.51.594" fill="#DEDEE8"/>
        <path d="M45.28 55.433c-.026.275-.184.483-.503.488-.378.006-.542-.227-.529-.588.013-.343.244-.478.543-.462.306.016.498.196.49.562" fill="#F7F5F2"/>
        <path d="M19.416 69.871c-.554.66-.81-.316-1.261-.225L18.12 58.26l1.254-.647.04 12.259" fill="#D9292B"/>
        <path d="M21.215 67.726c-.271.61-.72 1.084-1.195 1.537l-.054-11.906c.338-.305.72-.52 1.184-.57l.065 10.939" fill="#D2322E"/>
        <path d="M22.738 64.37a4.897 4.897 0 0 1-1.071 2.633l-.038-10.398c.36-.205.717-.443 1.088-.022l.021 7.786M16.464 46.927c.37-.02.766-.227 1.074.158l.008 7.24c-.345.22-.714.164-1.084.093l.002-7.49M18.17 47.697c.48.339.893.744 1.243 1.213l-.023 5.333-1.245.031.026-6.577" fill="#D9292B"/>
        <path d="M19.865 49.388c.54.297 1.004.677 1.309 1.225l-.01 3.404c-.433.093-.845.356-1.314.166l.015-4.795" fill="#D2322E"/>
        <path d="m19.416 69.871-.041-12.259c.134-.065.268-.132.402-.199l.063 11.947c-.073.226-.198.41-.424.511M18.12 58.258l.035 11.388-.407.107-.038-11.313c.137-.06.274-.12.41-.182" fill="#D7D7D7"/>
        <path d="m21.63 56.605.037 10.398c-.152.24-.155.571-.452.722l-.065-10.937c.125-.152.278-.23.48-.183M16.464 46.927l-.002 7.491-.4.03.019-7.74.383.22" fill="#2D2824"/>
        <path d="m18.17 47.697-.025 6.577-.422.022.027-6.994.42.395" fill="#D7D7D7"/>
        <path d="m19.84 69.36-.063-11.947a.414.414 0 0 1 .189-.056l.054 11.906a.417.417 0 0 1-.18.097" fill="#9F584F"/>
        <path d="m19.865 49.388-.015 4.795-.46.06.023-5.333c.223.092.357.267.452.478" fill="#D7D7D7"/>
        <path d="m22.738 64.37-.02-7.787c.344.56.092 1.195.228 1.78v4.997c-.08.334.035.708-.208 1.01" fill="#D15F4E"/>
        <path d="m16.081 46.709-.02 7.739-.093.015-.095-.013.039-7.832c.063.018.12.048.17.09" fill="#9F584F"/>
        <path d="m17.75 47.302-.027 6.994a.545.545 0 0 1-.177.029l-.008-7.24.212.217" fill="#DE5745"/>
        <path d="m21.165 54.017.009-3.404c.253.042.32.286.478.433l-.016 2.819c-.133.125-.275.22-.471.152M22.947 63.36l-.001-4.997a16.904 16.904 0 0 1 0 4.997" fill="#2D2824"/>
        <path d="M12.349 54.67c-.718-.31-.939-.862-.886-1.616.031-.45.18-.948-.186-1.357l-.008-2.968c.252-.514.617-.939 1.068-1.29l.012 7.232M10.692 51.716c-.583.03-.79.381-.838.911-.035.388.101.805-.171 1.16l-.075-3.07c.215-.546.642-.93 1.035-1.34l.049 2.339" fill="#D9292B"/>
        <path d="m10.692 51.716-.05-2.339c.126-.295.37-.477.627-.648l.008 2.968-.585.019" fill="#1A1A18"/>
        <path d="m12.349 54.67-.012-7.232.17-.182.02 7.436-.09.003-.088-.024" fill="#DE5745"/>
        <path d="m9.083 54.233-.056-2.883.27-.417c.376.976.005 2.004.212 2.99-.072.198-.219.294-.426.31" fill="#2D2824"/>
        <path d="M9.51 53.923c-.208-.986.163-2.014-.213-2.99l.311-.215.075 3.068-.174.137" fill="#77544E"/>
        <path d="m41.774 36.841-.036-12.2a2.613 2.613 0 0 1 1.241-.64l.056 11.656c-.305.517-.652.988-1.261 1.184M44.696 33.089c-.12.745-.568 1.302-1.064 1.832l-.026-11.268c.33-.211.677-.37 1.083-.348l.007 9.784" fill="#D9292B"/>
        <path d="M40.076 13.775c.543.289.938.726 1.26 1.237l-.02 6.068-1.26.05.02-7.355" fill="#D2322E"/>
        <path d="M38.46 13.297c.351.125.603.472 1.018.454l.022 7.418c-.327.253-.695.16-1.056.124l.015-7.996M41.784 15.396c.49.33.9.74 1.25 1.213l-.023 4.322c-.397.22-.821.225-1.254.158l.027-5.693" fill="#D9292B"/>
        <path d="m43.035 35.657-.056-11.655c.101-.15.25-.199.423-.191l.05 11.33-.417.516" fill="#D7D7D7"/>
        <path d="m44.696 33.089-.007-9.784.397-.06.033 8.988c-.013.348-.135.642-.423.856" fill="#2D2824"/>
        <path d="M43.634 17.194c.425.29.813.616 1.063 1.077v2.278c-.302.285-.665.38-1.07.348l.007-3.703M45.281 23.27c.353.176.273.548.294.813.19 2.407.355 4.818-.099 7.218-.023.125-.111.239-.17.358l-.025-8.39" fill="#D9292B"/>
        <path d="m40.076 13.775-.02 7.354-.4.024.005-7.417.415.04" fill="#2D2824"/>
        <path d="m41.784 15.396-.027 5.693-.442-.009.02-6.068c.234.031.34.212.45.384" fill="#D7D7D7"/>
        <path d="m43.453 35.14-.05-11.33.204-.157.026 11.268-.18.22" fill="#D15F4E"/>
        <path d="m45.281 23.27.026 8.389c-.025.204-.007.421-.188.575l-.033-8.988a.286.286 0 0 1 .195.023" fill="#8C4D44"/>
        <path d="m43.01 20.93.024-4.321.416.411-.031 3.883-.409.028" fill="#D7D7D7"/>
        <path d="m38.46 13.297-.016 7.996-.096.017-.096-.012.027-8.174.18.173" fill="#D15F4E"/>
        <path d="m39.661 13.735-.006 7.418-.076.016H39.5l-.022-7.418a.335.335 0 0 1 .183-.016" fill="#77544E"/>
        <path d="m44.696 20.549.001-2.279c.223.07.381.212.477.423l.003 1.631c-.092.22-.287.22-.48.225" fill="#2D2824"/>
        <path d="m43.419 20.903.031-3.883.185.175-.009 3.702-.207.006" fill="#D15F4E"/>
        <path d="M34.272 20.87c-.348-.383-.196-.857-.15-1.263.093-.836-.204-1.205-1.046-1.139l-.051-1.876c.35-.533.71-1.06 1.244-1.436l.003 5.715M31.423 21.147l-.06-2.618c.359-.542.765-1.044 1.264-1.467l.047 1.426c-.076.562-.187 1.122-.22 1.686-.04.673-.399.95-1.03.973" fill="#D9292B"/>
        <path d="m34.874 14.431.01 6.946-.42-.442-.008-5.982a.904.904 0 0 1 .418-.522" fill="#1A1A18"/>
        <path d="m34.456 14.953.007 5.982a.36.36 0 0 1-.191-.064l-.003-5.715.187-.203" fill="#9F584F"/>
        <path d="m32.674 18.488-.047-1.426.398-.47.051 1.876-.402.02" fill="#2D2824"/>
        <path d="M82.38 66.9h-1.423l-.565-1.462h-2.59l-.534 1.462h-1.387l2.523-6.435h1.382L82.38 66.9zm-2.408-2.545-.893-2.388-.874 2.388h1.767zM82.636 65.57l1.246-.189c.053.24.16.423.323.547.161.124.388.187.68.187.32 0 .562-.06.725-.176a.39.39 0 0 0 .163-.33.323.323 0 0 0-.088-.232c-.062-.058-.201-.112-.416-.162-1.001-.22-1.636-.42-1.904-.602a1.198 1.198 0 0 1-.556-1.049c0-.404.16-.743.48-1.018.322-.275.82-.413 1.494-.413.642 0 1.12.104 1.432.312.312.208.527.515.645.922l-1.171.215a.718.718 0 0 0-.285-.417c-.14-.097-.34-.145-.599-.145-.327 0-.56.045-.702.136a.292.292 0 0 0-.142.25c0 .088.042.163.124.224.112.082.499.198 1.16.347.661.149 1.123.332 1.385.548.26.22.389.526.389.918 0 .428-.18.794-.54 1.102-.359.307-.89.46-1.594.46-.64 0-1.145-.128-1.518-.386a1.779 1.779 0 0 1-.73-1.049M87.677 65.57l1.246-.189c.053.24.16.423.323.547.161.124.389.187.68.187.321 0 .563-.06.725-.176a.39.39 0 0 0 .163-.33.323.323 0 0 0-.088-.232c-.062-.058-.2-.112-.416-.162-1.001-.22-1.636-.42-1.904-.602a1.198 1.198 0 0 1-.556-1.049c0-.404.16-.743.481-1.018.321-.275.819-.413 1.494-.413.642 0 1.119.104 1.43.312.313.208.528.515.646.922l-1.17.215a.718.718 0 0 0-.286-.417c-.14-.097-.34-.145-.598-.145-.327 0-.562.045-.703.136a.291.291 0 0 0-.141.25c0 .088.041.163.123.224.112.082.5.198 1.16.347.661.149 1.123.332 1.385.548.26.22.389.526.389.918 0 .428-.18.794-.539 1.102-.36.307-.89.46-1.595.46-.64 0-1.145-.128-1.518-.386a1.779 1.779 0 0 1-.73-1.049M92.869 64.504c0-.41.101-.807.304-1.19.204-.383.492-.676.864-.878a2.58 2.58 0 0 1 1.248-.303c.71 0 1.292.23 1.745.687.454.458.68 1.037.68 1.736 0 .705-.228 1.29-.686 1.754-.458.464-1.035.696-1.73.696-.43 0-.84-.097-1.23-.29a1.996 1.996 0 0 1-.89-.85c-.204-.373-.305-.827-.305-1.362m1.272.066c0 .462.11.816.331 1.061.221.246.494.37.818.37.324 0 .596-.124.815-.37.22-.245.329-.602.329-1.07 0-.457-.11-.808-.33-1.054a1.048 1.048 0 0 0-.814-.368c-.324 0-.597.122-.818.368-.22.246-.33.6-.33 1.063M102.792 63.617l-1.224.22c-.041-.243-.135-.427-.28-.55-.146-.122-.335-.184-.568-.184-.31 0-.556.106-.74.319-.184.212-.276.567-.276 1.064 0 .553.093.944.28 1.172a.924.924 0 0 0 .754.343.84.84 0 0 0 .579-.2c.15-.133.256-.363.318-.687l1.22.206c-.128.556-.37.976-.73 1.26-.36.284-.841.426-1.445.426-.686 0-1.233-.216-1.641-.646-.408-.43-.612-1.025-.612-1.786 0-.77.205-1.369.614-1.798.41-.428.963-.643 1.661-.643.572 0 1.026.123 1.363.367.338.244.58.617.727 1.117M103.742 61.607h1.334v-1.142h-1.334v1.142zm0 5.293h1.334V62.24h-1.334V66.9zM107.202 63.661l-1.126-.202c.126-.45.344-.785.653-1 .31-.217.77-.326 1.38-.326.552 0 .965.066 1.236.196s.462.295.572.496c.11.2.166.568.166 1.104l-.014 1.44c0 .41.02.711.06.906.04.194.114.403.223.625h-1.228a4.5 4.5 0 0 1-.12-.364 1.922 1.922 0 0 0-.044-.145 2.218 2.218 0 0 1-.68.46 1.951 1.951 0 0 1-.773.155c-.483 0-.864-.131-1.142-.39a1.296 1.296 0 0 1-.417-.989c0-.263.063-.498.19-.704a1.24 1.24 0 0 1 .532-.474c.228-.11.557-.206.987-.288.58-.108.982-.209 1.206-.302v-.124c0-.237-.059-.405-.176-.506-.118-.102-.34-.152-.668-.152-.22 0-.393.043-.517.13-.123.086-.223.237-.3.454m1.661 1c-.159.053-.41.116-.755.19-.345.073-.57.144-.676.214a.514.514 0 0 0-.243.435.6.6 0 0 0 .194.447c.13.127.295.19.495.19.224 0 .437-.073.641-.22a.771.771 0 0 0 .296-.408c.032-.106.048-.306.048-.602v-.245M115.406 63.617l-1.223.22c-.041-.243-.135-.427-.28-.55-.147-.122-.336-.184-.568-.184-.31 0-.557.106-.74.319-.185.212-.277.567-.277 1.064 0 .553.094.944.28 1.172a.924.924 0 0 0 .754.343.84.84 0 0 0 .579-.2c.15-.133.256-.363.318-.687l1.22.206c-.127.556-.37.976-.73 1.26-.36.284-.84.426-1.444.426-.686 0-1.234-.216-1.642-.646-.407-.43-.611-1.025-.611-1.786 0-.77.204-1.369.613-1.798.41-.428.963-.643 1.662-.643.571 0 1.026.123 1.363.367.337.244.58.617.726 1.117m-3.344 5.052v-.518c.304.033.582.049.835.049.262 0 .456-.047.583-.141a.321.321 0 0 0 .146-.272c0-.1-.046-.186-.137-.26-.091-.072-.233-.109-.424-.109-.189 0-.381.03-.579.088l.115-.434c.23-.08.477-.119.742-.119.368 0 .648.08.84.241a.743.743 0 0 1 .287.589.752.752 0 0 1-.318.628c-.286.219-.695.328-1.228.328-.38 0-.668-.023-.862-.07M117.284 63.661l-1.126-.202c.127-.45.344-.785.654-1 .31-.217.769-.326 1.378-.326.554 0 .966.066 1.237.196.271.13.462.295.572.496.11.2.166.568.166 1.104l-.013 1.44c0 .41.02.711.06.906.04.194.114.403.223.625h-1.229a4.618 4.618 0 0 1-.119-.364 1.832 1.832 0 0 0-.044-.145 2.225 2.225 0 0 1-.68.46c-.242.103-.5.155-.774.155-.483 0-.863-.131-1.142-.39a1.295 1.295 0 0 1-.417-.989c0-.263.063-.498.19-.704.126-.207.304-.365.532-.474.228-.11.557-.206.988-.288.58-.108.982-.209 1.206-.302v-.124c0-.237-.06-.405-.177-.506-.118-.102-.34-.152-.667-.152-.221 0-.393.043-.517.13-.123.086-.224.237-.3.454m-.01-2.05h-.565a3.608 3.608 0 0 1-.004-.158c0-.308.075-.544.225-.709a.747.747 0 0 1 .579-.248c.103 0 .199.01.287.033.088.022.25.085.484.189.234.104.417.155.55.155a.335.335 0 0 0 .236-.087c.063-.058.104-.157.122-.295h.574c-.003.396-.077.678-.223.848a.71.71 0 0 1-.563.254c-.1 0-.199-.01-.296-.03a7.042 7.042 0 0 1-.509-.18c-.27-.103-.467-.154-.591-.154a.288.288 0 0 0-.221.086c-.053.057-.082.156-.085.296m1.67 3.05c-.158.053-.41.116-.755.19-.344.073-.57.144-.676.214a.514.514 0 0 0-.243.435c0 .173.065.322.195.447a.68.68 0 0 0 .494.19c.224 0 .438-.073.641-.22a.772.772 0 0 0 .296-.408c.033-.106.049-.306.049-.602v-.245M121.11 64.504c0-.41.102-.807.305-1.19.203-.383.491-.676.864-.878a2.581 2.581 0 0 1 1.248-.303c.71 0 1.292.23 1.745.687.454.458.68 1.037.68 1.736 0 .705-.228 1.29-.686 1.754-.458.464-1.035.696-1.73.696-.43 0-.84-.097-1.23-.29a1.994 1.994 0 0 1-.89-.85c-.204-.373-.306-.827-.306-1.362m1.273.066c0 .462.11.816.331 1.061.221.246.493.37.817.37.324 0 .597-.124.816-.37.22-.245.329-.602.329-1.07 0-.457-.11-.808-.33-1.054a1.048 1.048 0 0 0-.815-.368c-.324 0-.596.122-.817.368-.22.246-.331.6-.331 1.063M133.778 66.9h-1.153v-.684a1.86 1.86 0 0 1-.678.594c-.261.13-.524.196-.79.196-.538 0-1-.216-1.384-.648-.385-.431-.577-1.033-.577-1.806 0-.79.187-1.39.561-1.802.374-.411.847-.617 1.419-.617.524 0 .977.217 1.36.65v-2.318h1.242V66.9zm-3.314-2.431c0 .497.07.857.208 1.08.2.322.48.482.84.482.285 0 .528-.12.728-.362.2-.241.3-.602.3-1.082 0-.536-.097-.92-.291-1.157a.925.925 0 0 0-.747-.353.936.936 0 0 0-.74.349c-.198.232-.298.58-.298 1.043zM134.733 64.504c0-.41.101-.807.305-1.19.203-.383.49-.676.863-.878a2.58 2.58 0 0 1 1.248-.303c.71 0 1.292.23 1.745.687.454.458.681 1.037.681 1.736 0 .705-.23 1.29-.687 1.754-.458.464-1.035.696-1.73.696-.43 0-.84-.097-1.23-.29a1.994 1.994 0 0 1-.89-.85c-.204-.373-.305-.827-.305-1.362m1.272.066c0 .462.11.816.332 1.061.22.246.493.37.816.37.325 0 .596-.124.816-.37.22-.245.329-.602.329-1.07 0-.457-.11-.808-.329-1.054a1.05 1.05 0 0 0-.816-.368c-.323 0-.596.122-.816.368-.222.246-.332.6-.332 1.063M140.127 65.57l1.246-.189c.053.24.161.423.323.547.162.124.389.187.68.187.321 0 .563-.06.725-.176a.39.39 0 0 0 .163-.33.322.322 0 0 0-.088-.232c-.062-.058-.2-.112-.415-.162-1.002-.22-1.637-.42-1.905-.602a1.198 1.198 0 0 1-.556-1.049c0-.404.16-.743.481-1.018.321-.275.82-.413 1.494-.413.642 0 1.119.104 1.431.312.312.208.527.515.645.922l-1.17.215a.717.717 0 0 0-.286-.417c-.14-.097-.34-.145-.598-.145-.328 0-.562.045-.703.136a.29.29 0 0 0-.141.25c0 .088.041.163.123.224.112.082.499.198 1.16.347.662.149 1.123.332 1.385.548.26.22.39.526.39.918 0 .428-.18.794-.54 1.102-.36.307-.891.46-1.595.46-.639 0-1.145-.128-1.517-.386a1.78 1.78 0 0 1-.732-1.049M148.107 66.9h1.308v-6.435h-1.308zM154.937 66.9h-1.241v-2.379c0-.503-.027-.828-.08-.976a.687.687 0 0 0-.258-.345.745.745 0 0 0-.431-.123c-.215 0-.408.059-.579.176a.887.887 0 0 0-.351.465c-.063.193-.095.55-.095 1.071V66.9h-1.241V62.24h1.153v.684c.409-.526.924-.79 1.546-.79.274 0 .524.05.751.148.227.097.398.223.515.375.116.152.197.325.243.517.045.194.068.47.068.83V66.9M160.518 66.9h-1.153v-.684a1.858 1.858 0 0 1-.678.594c-.261.13-.524.196-.789.196-.539 0-1-.216-1.385-.648-.384-.431-.577-1.033-.577-1.806 0-.79.187-1.39.562-1.802a1.834 1.834 0 0 1 1.418-.617c.524 0 .978.217 1.36.65v-2.318h1.242V66.9zm-3.313-2.431c0 .497.069.857.207 1.08.2.322.48.482.84.482.285 0 .528-.12.729-.362.2-.241.3-.602.3-1.082 0-.536-.097-.92-.292-1.157a.926.926 0 0 0-.746-.353.935.935 0 0 0-.74.349c-.2.232-.298.58-.298 1.043zM164.848 66.9v-.698c-.171.25-.396.445-.674.588a1.897 1.897 0 0 1-.881.216c-.315 0-.598-.069-.849-.206a1.226 1.226 0 0 1-.543-.58c-.112-.249-.168-.593-.168-1.032v-2.95h1.242v2.143c0 .655.022 1.057.068 1.205a.657.657 0 0 0 .25.35.77.77 0 0 0 .46.13.983.983 0 0 0 .57-.173.882.882 0 0 0 .344-.43c.062-.171.093-.59.093-1.258V62.24H166V66.9h-1.153M166.867 65.57l1.246-.189c.053.24.161.423.323.547.162.124.388.187.68.187.321 0 .562-.06.725-.176a.39.39 0 0 0 .163-.33.323.323 0 0 0-.088-.232c-.062-.058-.2-.112-.415-.162-1.002-.22-1.637-.42-1.905-.602a1.198 1.198 0 0 1-.556-1.049c0-.404.16-.743.48-1.018.322-.275.82-.413 1.495-.413.642 0 1.119.104 1.431.312.312.208.527.515.645.922l-1.17.215a.716.716 0 0 0-.286-.417c-.14-.097-.34-.145-.599-.145-.327 0-.56.045-.702.136a.291.291 0 0 0-.141.25c0 .088.04.163.123.224.112.082.499.198 1.16.347.662.149 1.123.332 1.385.548.26.22.389.526.389.918 0 .428-.18.794-.54 1.102-.358.307-.89.46-1.594.46-.64 0-1.145-.128-1.517-.386a1.78 1.78 0 0 1-.732-1.049M174.497 62.239v.983h-.848V65.1c0 .38.008.602.024.665a.273.273 0 0 0 .11.156.353.353 0 0 0 .21.061c.115 0 .282-.04.5-.119l.106.958a2.492 2.492 0 0 1-.98.184c-.225 0-.427-.038-.607-.112a.88.88 0 0 1-.395-.29 1.129 1.129 0 0 1-.174-.48c-.027-.144-.04-.434-.04-.87v-2.032h-.57v-.983h.57v-.927l1.246-.719v1.646h.848M176.557 66.9h-1.242V62.24h1.153v.662c.197-.313.375-.52.533-.618.157-.1.336-.15.536-.15.283 0 .556.078.818.233l-.385 1.076c-.209-.135-.403-.202-.583-.202a.694.694 0 0 0-.442.142c-.12.095-.215.267-.285.516-.069.249-.103.77-.103 1.562v1.44M178.899 61.607h1.333v-1.142H178.9v1.142zm0 5.293h1.333V62.24H178.9V66.9zM182.358 63.661l-1.126-.202c.126-.45.344-.785.653-1 .31-.217.77-.326 1.379-.326.554 0 .966.066 1.237.196.271.13.462.295.572.496.11.2.166.568.166 1.104l-.013 1.44c0 .41.02.711.06.906.039.194.113.403.222.625h-1.228a4.5 4.5 0 0 1-.119-.364 1.792 1.792 0 0 0-.045-.145 2.218 2.218 0 0 1-.68.46c-.241.103-.499.155-.773.155-.483 0-.864-.131-1.142-.39a1.295 1.295 0 0 1-.417-.989c0-.263.063-.498.19-.704a1.24 1.24 0 0 1 .532-.474c.228-.11.557-.206.987-.288.58-.108.982-.209 1.206-.302v-.124c0-.237-.059-.405-.176-.506-.118-.102-.34-.152-.668-.152-.22 0-.393.043-.517.13-.123.086-.223.237-.3.454m1.661 1c-.159.053-.41.116-.755.19-.345.073-.57.144-.676.214a.514.514 0 0 0-.243.435c0 .173.065.322.194.447.13.127.295.19.495.19.224 0 .437-.073.641-.22a.773.773 0 0 0 .296-.408c.032-.106.048-.306.048-.602v-.245M186.471 61.607h1.334v-1.142h-1.334v1.142zm0 5.293h1.334V62.24h-1.334V66.9zM188.566 65.57l1.246-.189c.053.24.16.423.322.547.162.124.389.187.68.187.322 0 .563-.06.725-.176a.39.39 0 0 0 .164-.33.323.323 0 0 0-.089-.232c-.061-.058-.2-.112-.415-.162-1.001-.22-1.636-.42-1.904-.602a1.198 1.198 0 0 1-.557-1.049c0-.404.16-.743.482-1.018.32-.275.818-.413 1.493-.413.642 0 1.12.104 1.432.312.312.208.527.515.644.922l-1.17.215a.718.718 0 0 0-.285-.417c-.14-.097-.34-.145-.6-.145-.326 0-.56.045-.701.136a.291.291 0 0 0-.141.25c0 .088.04.163.123.224.112.082.498.198 1.16.347.661.149 1.123.332 1.385.548.259.22.389.526.389.918 0 .428-.18.794-.54 1.102-.36.307-.89.46-1.594.46-.64 0-1.146-.128-1.518-.386a1.78 1.78 0 0 1-.731-1.049M200.88 66.9h-1.154v-.684a1.86 1.86 0 0 1-.678.594c-.26.13-.523.196-.788.196-.54 0-1.001-.216-1.385-.648-.385-.431-.577-1.033-.577-1.806 0-.79.187-1.39.561-1.802.374-.411.847-.617 1.418-.617.525 0 .978.217 1.361.65v-2.318h1.242V66.9zm-3.314-2.431c0 .497.07.857.208 1.08.2.322.48.482.84.482.285 0 .528-.12.728-.362.2-.241.3-.602.3-1.082 0-.536-.097-.92-.291-1.157a.925.925 0 0 0-.747-.353.936.936 0 0 0-.74.349c-.198.232-.298.58-.298 1.043zM203.05 63.661l-1.128-.202c.127-.45.345-.785.654-1 .31-.217.77-.326 1.379-.326.553 0 .966.066 1.237.196.27.13.462.295.572.496.11.2.166.568.166 1.104l-.013 1.44c0 .41.02.711.06.906.039.194.113.403.223.625h-1.23a4.742 4.742 0 0 1-.118-.364 1.833 1.833 0 0 0-.045-.145 2.225 2.225 0 0 1-.68.46c-.241.103-.499.155-.773.155-.483 0-.864-.131-1.142-.39a1.295 1.295 0 0 1-.417-.989c0-.263.063-.498.19-.704.126-.207.304-.365.532-.474.228-.11.557-.206.987-.288.58-.108.982-.209 1.206-.302v-.124c0-.237-.059-.405-.176-.506-.118-.102-.34-.152-.668-.152-.22 0-.393.043-.517.13-.123.086-.223.237-.3.454m1.661 1c-.159.053-.41.116-.755.19-.345.073-.57.144-.676.214a.514.514 0 0 0-.243.435c0 .173.065.322.194.447a.68.68 0 0 0 .495.19c.224 0 .437-.073.64-.22a.772.772 0 0 0 .297-.408c.032-.106.048-.306.048-.602v-.245M213.848 64.535l1.268.399c-.195.702-.518 1.224-.97 1.565-.452.34-1.026.51-1.72.51-.861 0-1.568-.291-2.122-.875-.553-.583-.83-1.382-.83-2.394 0-1.071.278-1.903.835-2.495.556-.593 1.288-.89 2.195-.89.793 0 1.436.233 1.931.699.295.275.516.67.663 1.185l-1.295.307a1.364 1.364 0 0 0-.48-.79 1.378 1.378 0 0 0-.885-.29c-.48 0-.87.171-1.169.514-.299.342-.448.897-.448 1.663 0 .814.147 1.393.442 1.738.294.346.677.518 1.149.518.347 0 .646-.11.896-.329.251-.219.43-.564.54-1.035M215.95 64.504c0-.41.102-.807.306-1.19.203-.383.49-.676.863-.878a2.582 2.582 0 0 1 1.248-.303c.71 0 1.292.23 1.745.687.454.458.681 1.037.681 1.736 0 .705-.23 1.29-.687 1.754-.458.464-1.035.696-1.73.696-.43 0-.84-.097-1.23-.29a1.992 1.992 0 0 1-.89-.85c-.204-.373-.305-.827-.305-1.362m1.272.066c0 .462.11.816.332 1.061.22.246.493.37.816.37.325 0 .597-.124.816-.37.22-.245.329-.602.329-1.07 0-.457-.11-.808-.329-1.054a1.049 1.049 0 0 0-.816-.368c-.323 0-.596.122-.816.368-.222.246-.332.6-.332 1.063M226.051 66.9h-1.241v-2.379c0-.503-.027-.828-.08-.976a.685.685 0 0 0-.258-.345.746.746 0 0 0-.431-.123c-.215 0-.408.059-.58.176a.886.886 0 0 0-.35.465c-.064.193-.095.55-.095 1.071V66.9h-1.241V62.24h1.152v.684c.41-.526.925-.79 1.547-.79.274 0 .524.05.75.148.228.097.4.223.516.375.116.152.197.325.242.517.046.194.07.47.07.83V66.9M226.89 65.57l1.247-.189c.052.24.16.423.322.547.162.124.389.187.68.187.322 0 .563-.06.725-.176a.39.39 0 0 0 .164-.33.322.322 0 0 0-.089-.232c-.062-.058-.2-.112-.415-.162-1.001-.22-1.636-.42-1.905-.602a1.199 1.199 0 0 1-.556-1.049c0-.404.16-.743.481-1.018.322-.275.82-.413 1.494-.413.642 0 1.12.104 1.431.312.313.208.527.515.645.922l-1.17.215a.716.716 0 0 0-.285-.417c-.14-.097-.34-.145-.6-.145-.326 0-.56.045-.701.136a.291.291 0 0 0-.142.25c0 .088.042.163.124.224.112.082.498.198 1.16.347.661.149 1.123.332 1.385.548.259.22.388.526.388.918 0 .428-.18.794-.539 1.102-.359.307-.89.46-1.594.46-.64 0-1.146-.128-1.518-.386a1.781 1.781 0 0 1-.731-1.049M234.521 62.239v.983h-.849V65.1c0 .38.009.602.025.665a.273.273 0 0 0 .11.156.352.352 0 0 0 .21.061c.115 0 .282-.04.5-.119l.105.958a2.491 2.491 0 0 1-.98.184 1.57 1.57 0 0 1-.606-.112.884.884 0 0 1-.395-.29 1.136 1.136 0 0 1-.175-.48c-.026-.144-.04-.434-.04-.87v-2.032h-.57v-.983h.57v-.927l1.246-.719v1.646h.849M236.58 66.9h-1.242V62.24h1.153v.662c.198-.313.375-.52.533-.618.157-.1.336-.15.537-.15.282 0 .555.078.817.233l-.384 1.076c-.21-.135-.404-.202-.583-.202a.694.694 0 0 0-.442.142c-.121.095-.216.267-.285.516-.07.249-.104.77-.104 1.562v1.44M242.01 66.9v-.698a1.8 1.8 0 0 1-.674.588 1.897 1.897 0 0 1-.881.216c-.315 0-.598-.069-.849-.206a1.228 1.228 0 0 1-.543-.58c-.112-.249-.168-.593-.168-1.032v-2.95h1.242v2.143c0 .655.023 1.057.068 1.205a.657.657 0 0 0 .25.35.77.77 0 0 0 .46.13.984.984 0 0 0 .57-.173.882.882 0 0 0 .344-.43c.062-.171.093-.59.093-1.258V62.24h1.24V66.9h-1.152M248.558 63.617l-1.224.22c-.041-.243-.135-.427-.28-.55a.851.851 0 0 0-.568-.184c-.31 0-.556.106-.74.319-.184.212-.277.567-.277 1.064 0 .553.094.944.281 1.172a.924.924 0 0 0 .754.343.84.84 0 0 0 .578-.2c.15-.133.257-.363.318-.687l1.22.206c-.127.556-.37.976-.73 1.26-.359.284-.84.426-1.444.426-.686 0-1.233-.216-1.642-.646-.407-.43-.611-1.025-.611-1.786 0-.77.205-1.369.614-1.798.41-.428.963-.643 1.661-.643.571 0 1.026.123 1.363.367.337.244.58.617.727 1.117m-3.345 5.052v-.518c.304.033.582.049.836.049.261 0 .456-.047.582-.141a.321.321 0 0 0 .146-.272c0-.1-.045-.186-.137-.26-.09-.072-.232-.109-.424-.109-.189 0-.381.03-.579.088l.115-.434c.23-.08.477-.119.743-.119.368 0 .648.08.839.241a.743.743 0 0 1 .287.589.753.753 0 0 1-.318.628c-.286.219-.695.328-1.228.328-.38 0-.667-.023-.862-.07M250.436 63.661l-1.127-.202c.127-.45.345-.785.654-1 .31-.217.769-.326 1.379-.326.553 0 .966.066 1.236.196.271.13.462.295.573.496.11.2.165.568.165 1.104l-.013 1.44c0 .41.02.711.06.906.04.194.114.403.223.625h-1.228a4.5 4.5 0 0 1-.12-.364 1.792 1.792 0 0 0-.044-.145 2.22 2.22 0 0 1-.68.46 1.95 1.95 0 0 1-.773.155c-.483 0-.864-.131-1.142-.39a1.294 1.294 0 0 1-.417-.989c0-.263.063-.498.19-.704.126-.207.303-.365.531-.474.229-.11.558-.206.988-.288.58-.108.982-.209 1.206-.302v-.124c0-.237-.06-.405-.177-.506-.118-.102-.34-.152-.667-.152-.22 0-.393.043-.517.13-.123.086-.224.237-.3.454m-.01-2.05h-.564a3.528 3.528 0 0 1-.005-.158c0-.308.075-.544.225-.709a.747.747 0 0 1 .579-.248c.103 0 .2.01.288.033.088.022.249.085.483.189.234.104.417.155.55.155a.335.335 0 0 0 .236-.087c.064-.058.105-.157.122-.295h.574c-.003.396-.077.678-.223.848a.709.709 0 0 1-.563.254c-.1 0-.199-.01-.296-.03a7.028 7.028 0 0 1-.508-.18c-.271-.103-.468-.154-.592-.154a.29.29 0 0 0-.221.086c-.053.057-.081.156-.084.296m1.67 3.05c-.159.053-.41.116-.755.19-.345.073-.57.144-.676.214a.514.514 0 0 0-.243.435.6.6 0 0 0 .194.447.68.68 0 0 0 .495.19c.223 0 .437-.073.64-.22a.77.77 0 0 0 .296-.408c.033-.106.05-.306.05-.602v-.245M254.262 64.504c0-.41.102-.807.305-1.19.203-.383.491-.676.864-.878a2.58 2.58 0 0 1 1.248-.303c.71 0 1.292.23 1.745.687.454.458.68 1.037.68 1.736 0 .705-.228 1.29-.687 1.754-.458.464-1.034.696-1.73.696-.43 0-.84-.097-1.23-.29a1.991 1.991 0 0 1-.89-.85c-.203-.373-.305-.827-.305-1.362m1.273.066c0 .462.11.816.331 1.061.22.246.493.37.817.37.324 0 .596-.124.815-.37.22-.245.33-.602.33-1.07 0-.457-.11-.808-.33-1.054a1.049 1.049 0 0 0-.815-.368c-.324 0-.596.122-.817.368-.221.246-.331.6-.331 1.063M124.839 77.525l1.267.4c-.194.701-.517 1.223-.97 1.564-.451.34-1.025.511-1.72.511-.86 0-1.567-.292-2.12-.876-.555-.583-.831-1.382-.831-2.394 0-1.07.278-1.903.835-2.495.556-.593 1.288-.889 2.195-.889.793 0 1.436.233 1.931.698.295.275.516.67.663 1.185l-1.295.307a1.363 1.363 0 0 0-.48-.79 1.38 1.38 0 0 0-.885-.29c-.48 0-.87.171-1.168.514-.3.342-.449.897-.449 1.663 0 .814.147 1.393.442 1.739.294.345.677.518 1.149.518.347 0 .646-.11.896-.33.25-.22.43-.564.54-1.035M127.23 74.597h1.333v-1.142h-1.334v1.142zm0 5.294h1.333v-4.662h-1.334v4.662zM131.051 79.89l-1.89-4.66h1.302l.884 2.378.257.794c.067-.201.11-.335.128-.399.04-.132.085-.264.132-.395l.892-2.379h1.278l-1.865 4.661h-1.118M134.802 74.597h1.334v-1.142h-1.334v1.142zm0 5.294h1.334v-4.662h-1.334v4.662zM137.334 79.89h1.241v-6.435h-1.24zM145.115 78.407l1.237.206c-.159.45-.41.794-.753 1.03-.344.235-.773.353-1.288.353-.816 0-1.42-.265-1.811-.795-.31-.423-.465-.96-.465-1.606 0-.773.204-1.378.61-1.815.407-.438.92-.656 1.542-.656.698 0 1.249.228 1.653.686.403.459.596 1.16.578 2.105h-3.11c.009.366.109.65.3.854.192.203.43.305.716.305a.763.763 0 0 0 .49-.158c.133-.105.233-.275.301-.51m.07-1.246c-.008-.357-.1-.628-.278-.814a.856.856 0 0 0-.645-.279.866.866 0 0 0-.671.294c-.177.196-.264.463-.26.8h1.855M149.714 76.713c0-.656.099-1.206.296-1.651a3.04 3.04 0 0 1 .603-.883c.255-.26.534-.453.838-.579.403-.17.869-.254 1.396-.254.954 0 1.718.294 2.29.882.573.588.86 1.406.86 2.454 0 1.039-.284 1.851-.853 2.438-.568.587-1.328.88-2.28.88-.963 0-1.729-.292-2.297-.876-.569-.583-.853-1.388-.853-2.411m1.348-.044c0 .728.17 1.28.508 1.657.339.376.768.564 1.29.564.521 0 .949-.187 1.284-.56.334-.373.501-.933.501-1.679 0-.737-.163-1.288-.488-1.65-.326-.363-.758-.544-1.297-.544-.54 0-.973.183-1.303.55-.33.368-.495.921-.495 1.662M156.974 79.89v-6.435h1.241v2.318c.383-.433.837-.65 1.36-.65.573 0 1.045.206 1.42.617.373.411.56 1.002.56 1.771 0 .796-.19 1.41-.572 1.84-.381.43-.844.645-1.39.645-.268 0-.531-.067-.793-.2a1.898 1.898 0 0 1-.673-.59v.684h-1.153zm1.232-2.431c0 .483.077.84.23 1.07.215.329.5.492.857.492.274 0 .507-.116.7-.348.194-.233.29-.6.29-1.1 0-.533-.097-.917-.291-1.152a.926.926 0 0 0-.747-.354.939.939 0 0 0-.743.345c-.197.23-.296.579-.296 1.047zM163.76 79.89h-1.241v-4.66h1.153v.662c.197-.314.375-.52.533-.62a.981.981 0 0 1 .537-.148c.282 0 .555.077.817.232l-.385 1.075c-.209-.134-.403-.201-.583-.201a.692.692 0 0 0-.441.142c-.122.095-.216.268-.286.516-.069.249-.103.77-.103 1.563v1.44M167.03 76.651l-1.127-.202c.127-.45.345-.784.654-1 .31-.217.77-.325 1.379-.325.553 0 .966.065 1.237.195.27.13.462.295.572.496.11.2.166.568.166 1.104l-.013 1.44c0 .41.02.711.06.906.039.195.113.403.223.626h-1.23a4.73 4.73 0 0 1-.118-.365 1.874 1.874 0 0 0-.045-.144 2.24 2.24 0 0 1-.68.46c-.241.103-.499.154-.773.154-.483 0-.864-.13-1.142-.39a1.295 1.295 0 0 1-.417-.988c0-.264.063-.499.19-.705.126-.207.304-.364.532-.474.228-.11.557-.206.987-.287.58-.109.982-.21 1.206-.304v-.122c0-.237-.059-.406-.176-.507-.118-.102-.34-.152-.668-.152-.22 0-.393.043-.517.13-.123.086-.223.237-.3.454m1.661 1c-.159.053-.41.116-.755.19-.345.073-.57.144-.676.214-.162.115-.243.26-.243.435 0 .173.065.322.194.448.13.126.295.188.495.188.224 0 .437-.072.64-.219a.773.773 0 0 0 .297-.408c.032-.105.048-.306.048-.601v-.246M170.706 78.56l1.246-.188c.053.24.16.422.323.546.162.124.389.187.68.187.321 0 .563-.059.725-.176a.39.39 0 0 0 .163-.329.32.32 0 0 0-.089-.233c-.061-.058-.2-.112-.414-.162-1.002-.22-1.637-.42-1.905-.601a1.2 1.2 0 0 1-.556-1.05c0-.404.16-.743.481-1.018.32-.275.82-.412 1.494-.412.642 0 1.119.103 1.431.31.312.21.527.516.645.923l-1.17.215a.718.718 0 0 0-.286-.417c-.14-.097-.34-.145-.598-.145-.328 0-.562.045-.703.136a.292.292 0 0 0-.141.25c0 .088.041.163.123.224.112.082.499.198 1.16.347.662.15 1.123.332 1.385.548.26.22.389.526.389.918 0 .428-.18.795-.539 1.102-.36.307-.89.461-1.595.461-.639 0-1.145-.129-1.517-.387a1.777 1.777 0 0 1-.732-1.049M178.726 79.89v-6.435h2.098c.795 0 1.314.033 1.555.097.371.097.682.306.932.63.25.323.376.741.376 1.253 0 .395-.072.727-.217.996-.144.27-.327.481-.55.634a1.897 1.897 0 0 1-.678.306c-.312.061-.765.092-1.356.092h-.853v2.427h-1.307zm1.307-5.346v1.826h.716c.515 0 .86-.034 1.034-.1a.86.86 0 0 0 .408-.317.86.86 0 0 0 .148-.5.828.828 0 0 0-.207-.58.91.91 0 0 0-.526-.285c-.156-.03-.47-.044-.941-.044h-.632zM187.858 79.89v-.697a1.806 1.806 0 0 1-.674.588 1.896 1.896 0 0 1-.881.215c-.315 0-.598-.069-.849-.207a1.22 1.22 0 0 1-.543-.58c-.112-.248-.168-.591-.168-1.03v-2.95h1.242v2.142c0 .655.022 1.057.068 1.205a.659.659 0 0 0 .25.351.77.77 0 0 0 .46.13.983.983 0 0 0 .57-.174.882.882 0 0 0 .344-.43c.062-.171.093-.59.093-1.258V75.23h1.24v4.661h-1.152zm-1.609-5.232.61-1.312h1.392l-1.215 1.312h-.787zM190.262 79.89v-6.435h1.242v2.318c.383-.433.836-.65 1.36-.65.572 0 1.044.206 1.418.617.375.411.562 1.002.562 1.771 0 .796-.191 1.41-.573 1.84-.381.43-.844.645-1.39.645-.267 0-.531-.067-.792-.2a1.898 1.898 0 0 1-.674-.59v.684h-1.153zm1.232-2.431c0 .483.077.84.23 1.07.215.329.5.492.857.492.274 0 .508-.116.7-.348.194-.233.29-.6.29-1.1 0-.533-.097-.917-.292-1.152a.925.925 0 0 0-.746-.354.938.938 0 0 0-.742.345c-.197.23-.297.579-.297 1.047zM195.86 79.89h1.242v-6.435h-1.242zM198.392 74.597h1.333v-1.142h-1.333v1.142zm0 5.294h1.333v-4.662h-1.333v4.662zM205.015 76.607l-1.224.22c-.041-.243-.135-.426-.28-.55a.853.853 0 0 0-.568-.184c-.31 0-.556.107-.74.319-.184.212-.277.567-.277 1.064 0 .553.094.944.281 1.172a.924.924 0 0 0 .753.343.841.841 0 0 0 .579-.2c.15-.133.256-.362.318-.687l1.22.206c-.127.556-.37.976-.729 1.26-.36.284-.841.426-1.445.426-.686 0-1.233-.215-1.641-.646-.408-.43-.612-1.025-.612-1.786 0-.77.205-1.369.614-1.798.41-.428.963-.643 1.661-.643.571 0 1.026.123 1.363.367.337.244.58.617.727 1.117M206.893 76.651l-1.127-.202c.127-.45.345-.784.654-1 .31-.217.77-.325 1.379-.325.553 0 .966.065 1.236.195.271.13.463.295.573.496.11.2.165.568.165 1.104l-.013 1.44c0 .41.02.711.06.906.04.195.114.403.223.626h-1.228a4.607 4.607 0 0 1-.12-.365 1.874 1.874 0 0 0-.044-.144 2.238 2.238 0 0 1-.68.46c-.242.103-.5.154-.773.154-.483 0-.864-.13-1.143-.39a1.295 1.295 0 0 1-.417-.988c0-.264.063-.499.19-.705.127-.207.304-.364.533-.474.228-.11.557-.206.987-.287.58-.109.982-.21 1.206-.304v-.122c0-.237-.06-.406-.177-.507-.118-.102-.34-.152-.667-.152-.22 0-.393.043-.517.13-.123.086-.224.237-.3.454m1.661 1a7.889 7.889 0 0 1-.755.19c-.345.073-.57.144-.676.214-.162.115-.243.26-.243.435 0 .173.064.322.194.448s.295.188.495.188c.223 0 .437-.072.64-.219a.773.773 0 0 0 .296-.408c.033-.105.05-.306.05-.601v-.246M210.568 78.56l1.246-.188c.053.24.161.422.323.546.162.124.389.187.68.187.321 0 .563-.059.725-.176a.39.39 0 0 0 .163-.329.321.321 0 0 0-.088-.233c-.062-.058-.2-.112-.415-.162-1.001-.22-1.636-.42-1.905-.601a1.2 1.2 0 0 1-.556-1.05c0-.404.16-.743.481-1.018.321-.275.82-.412 1.494-.412.642 0 1.119.103 1.431.31.313.21.527.516.645.923l-1.17.215a.72.72 0 0 0-.286-.417c-.14-.097-.339-.145-.598-.145-.327 0-.562.045-.702.136a.29.29 0 0 0-.142.25c0 .088.041.163.123.224.113.082.499.198 1.16.347.662.15 1.123.332 1.385.548.26.22.39.526.39.918 0 .428-.18.795-.54 1.102-.359.307-.89.461-1.595.461-.639 0-1.145-.129-1.517-.387a1.777 1.777 0 0 1-.732-1.049" fill="#000"/>
    </g>
</svg>
