<?xml version="1.0" encoding="utf-8"?>
<!-- Generator: Adobe Illustrator 16.0.0, SVG Export Plug-In . SVG Version: 6.00 Build 0)  -->
<!DOCTYPE svg PUBLIC "-//W3C//DTD SVG 1.1//EN" "http://www.w3.org/Graphics/SVG/1.1/DTD/svg11.dtd">
<svg version="1.1" id="Layer_1" xmlns="http://www.w3.org/2000/svg" xmlns:xlink="http://www.w3.org/1999/xlink" x="0px" y="0px"
	 width="699.14px" height="122.69px" viewBox="71.375 108.733 699.14 122.69" enable-background="new 71.375 108.733 699.14 122.69"
	 xml:space="preserve">
<g id="Background">
</g>
<g id="Guides">
</g>
<g id="Foreground">
	<g>
		<path fill="#ED1C24" d="M104.687,108.733c-17.06,2.183-28.251,10.098-31.526,27.703c-2.047,10.918-1.774,22.52-1.774,33.571
			c0,11.191-0.272,22.793,1.774,33.712c4.367,23.608,21.699,24.563,31.526,27.704v-4.914c-17.742-0.272-16.924-37.668-16.924-56.502
			c0-18.694-0.818-56.091,16.924-56.362V108.733L104.687,108.733z"/>
		<path fill="#ED1C24" d="M131.219,155.68c-10.781-5.458-17.605-15.56-17.605-27.705c0-6.552,2.865-13.784,10.508-13.784
			c7.508,0,9.963,5.186,9.963,11.875c0,5.323-5.186,12.69-12.418,9.417c1.092,7.505,6.004,12.146,12.418,15.967L131.219,155.68z
			 M162.063,155.68c-10.781-5.458-17.605-15.56-17.605-27.705c0-6.552,2.865-13.784,10.508-13.784c7.508,0,9.965,5.186,9.965,11.875
			c0,5.323-5.188,12.69-12.42,9.417c1.091,7.505,6.004,12.146,12.42,15.967L162.063,155.68z"/>
		<path d="M176.441,108.733v5.05c11.191,0,9.689,3.139,9.689,11.327v86.662h3.549l14.194-5.047
			c5.05,3.407,11.054,5.047,17.197,5.047c20.743,0,27.021-15.148,27.021-33.709c0-18.287-5.596-33.163-25.795-33.163
			c-6.55,0-12.828,2.183-17.878,6.414v-42.58L176.441,108.733L176.441,108.733z M227.894,177.924c0,11.603,0,27.568-12.555,27.568
			c-13.374,0-10.781-20.334-10.781-28.25c0-10.783-0.41-26.067,11.872-26.067C227.349,151.175,227.894,164.959,227.894,177.924z"/>
		<path d="M285.199,146.263h-27.976v5.321c10.916,0,9.689,3.139,9.689,9.417v33.164c0,8.054,1.502,11.189-9.689,11.189v5.324
			c6.276-0.138,12.555-0.138,18.834-0.273c6.276,0.137,12.555,0.137,18.834,0.273v-5.324c-11.191,0-9.692-3.14-9.692-11.189V146.263
			L285.199,146.263z M276.465,133.435c6.414,0,9.417-4.231,9.417-10.373c0-6.144-3.003-10.508-9.417-10.508
			s-9.417,4.365-9.417,10.508C267.048,129.202,270.051,133.435,276.465,133.435z"/>
		<path d="M362.271,145.99c-9.417,0.138-18.834,0.273-28.251,0.273c-9.416,0-18.834-0.137-28.523-0.273v19.925h6.552
			c0.546-5.729,2.455-13.374,10.644-13.646h16.514l-36.847,53.226v5.187c9.962-0.138,20.061-0.271,30.022-0.271
			c9.965,0,19.928,0.137,29.89,0.271v-21.154h-7.915c-1.094,9.281-2.185,14.467-12.01,14.875h-17.06l36.984-53.498V145.99
			L362.271,145.99z"/>
		<path d="M440.89,145.99c-4.504,0.138-8.871,0.138-13.375,0.273c-4.506-0.137-9.006-0.137-13.51-0.273v4.913
			c4.64,0,7.504,1.093,7.915,3.549c0,1.092-0.41,2.047-0.817,3.82l-10.234,36.031l-12.421-34.259
			c-0.955-2.592-1.091-3.547-0.817-4.639c0.817-3.003,3.139-4.094,8.051-4.504v-4.913c-6.276,0.138-12.418,0.138-18.696,0.273
			c-6.277-0.137-12.556-0.137-18.834-0.273v4.913c6.96,0.546,8.871,2.729,10.646,9.008l18.834,50.771
			c2.183-0.138,4.229-0.138,6.414-0.271c2.183,0.137,4.229,0.137,6.414,0.271l18.968-50.771c2.051-5.595,4.367-9.008,11.465-9.008
			v-4.913L440.89,145.99L440.89,145.99z"/>
		<path d="M474.72,146.263h-27.977v5.321c10.916,0,9.688,3.139,9.688,9.417v33.164c0,8.054,1.502,11.189-9.688,11.189v5.324
			c6.273-0.138,12.555-0.138,18.834-0.273c6.277,0.137,12.555,0.137,18.834,0.273v-5.324c-11.191,0-9.691-3.14-9.691-11.189V146.263
			z M465.986,133.435c6.414,0,9.418-4.231,9.418-10.373c0-6.144-3.004-10.508-9.418-10.508s-9.416,4.365-9.416,10.508
			C456.57,129.202,459.572,133.435,465.986,133.435z"/>
		<path d="M551.521,179.836c0.955-23.61-3.822-34.938-27.844-34.938c-22.107,0-30.844,8.188-30.844,32.891
			c0,24.021,6.824,33.98,32.072,33.98c10.645,0,23.473-3.685,24.43-16.785c0.137-1.5,0.41-3.687-1.502-3.687h-8.596
			c-1.912,0.273-1.643,1.638-2.188,3.822c-1.771,7.916-4.912,11.053-12.145,11.053c-13.646,0-12.146-17.332-12.146-26.338
			L551.521,179.836L551.521,179.836z M512.761,173.557c0.271-12.281-0.549-23.335,10.098-23.335
			c11.465,0,10.102,10.507,10.373,23.335H512.761z"/>
		<path d="M626.591,210.68c2.455-0.138,4.912-0.138,7.369-0.273c2.455,0.137,4.775,0.137,7.232,0.273l16.787-50.771
			c2.455-6.278,5.596-9.554,11.053-9.009v-4.913c-4.502,0.138-9.006,0.138-13.51,0.273c-4.506-0.137-9.146-0.137-13.646-0.273v5.186
			c2.865,0,9.689,0,8.732,3.55l-1.363,5.188l-8.736,33.437L626.32,145.99c-2.459,0.138-4.916,0.138-7.371,0.273
			c-2.457-0.137-4.914-0.137-7.369-0.273l-14.467,47.085l-9.281-33.164c-0.547-1.912-1.227-3.822-0.955-5.596
			c0.408-2.187,3.957-2.73,5.73-3.003l3.139-0.41v-4.913c-6.275,0.138-12.555,0.138-18.834,0.273
			c-6.275-0.137-12.689-0.137-18.969-0.273v4.913c7.916,1.366,7.098,1.772,10.234,9.009l15.83,50.771
			c2.32-0.138,4.645-0.138,6.963-0.273c2.32,0.137,4.641,0.137,6.959,0.273l14.604-45.857L626.591,210.68z"/>
		<path fill="#ED1C24" d="M712.814,155.68c10.779-5.458,17.604-15.56,17.604-27.705c0-6.552-2.865-13.784-10.508-13.784
			c-7.508,0-9.963,5.186-9.963,11.875c0,5.323,5.186,12.69,12.418,9.417c-1.092,7.505-6.004,12.146-12.418,15.967L712.814,155.68z
			 M681.97,155.68c10.781-5.458,17.605-15.56,17.605-27.705c0-6.552-2.867-13.784-10.51-13.784c-7.51,0-9.967,5.186-9.967,11.875
			c0,5.323,5.189,12.69,12.42,9.417c-1.092,7.505-6.004,12.146-12.42,15.967L681.97,155.68z"/>
		<path fill="#ED1C24" d="M737.205,113.646c17.742,0.271,16.924,37.667,16.924,56.361c0,18.834,0.818,56.23-16.924,56.505v4.911
			c9.826-3.139,27.158-4.096,31.525-27.702c2.047-10.921,1.773-22.521,1.773-33.714c0-11.053,0.273-22.652-1.773-33.57
			c-3.275-17.605-14.467-25.521-31.525-27.703V113.646z"/>
	</g>
</g>
</svg>
